<svg width="239" height="161" viewBox="0 0 239 161" fill="none" xmlns="http://www.w3.org/2000/svg">
<g clip-path="url(#clip0_208_14749)">
<path d="M165.005 0H65.2718C61.8205 0 59.0226 2.80057 59.0226 6.25525V152.172C59.0226 155.627 61.8205 158.427 65.2718 158.427H165.005C168.457 158.427 171.254 155.627 171.254 152.172V6.25525C171.254 2.80057 168.457 0 165.005 0Z" fill="#86A7FF"/>
<path d="M134.918 6.97072H95.361V13.6179H134.918V6.97072Z" fill="#D3DFFF"/>
<path d="M160.06 23.7499H70.2183V43.6941H160.06V23.7499Z" fill="#DADADA"/>
<path d="M156.129 26.4773H74.1495V40.9655H156.129V26.4773Z" fill="white"/>
<path d="M136.629 52.9444H130.526C128.693 52.9444 127.208 54.4313 127.208 56.2655V57.6774C127.208 59.5116 128.693 60.9985 130.526 60.9985H136.629C138.462 60.9985 139.947 59.5116 139.947 57.6774V56.2655C139.947 54.4313 138.462 52.9444 136.629 52.9444Z" fill="#1F3C88"/>
<path d="M156.743 52.9444H150.64C148.807 52.9444 147.322 54.4313 147.322 56.2655V57.6774C147.322 59.5116 148.807 60.9985 150.64 60.9985H156.743C158.576 60.9985 160.061 59.5116 160.061 57.6774V56.2655C160.061 54.4313 158.576 52.9444 156.743 52.9444Z" fill="#1F3C88"/>
<path d="M158.477 70.7309H146.218C145.345 70.7309 144.638 71.4391 144.638 72.3128V79.664C144.638 80.5377 145.345 81.2459 146.218 81.2459H158.477C159.35 81.2459 160.058 80.5377 160.058 79.664V72.3128C160.058 71.4391 159.35 70.7309 158.477 70.7309Z" fill="#1F3C88"/>
<path d="M133.875 70.7309H121.617C120.744 70.7309 120.036 71.4391 120.036 72.3128V79.664C120.036 80.5377 120.744 81.2459 121.617 81.2459H133.875C134.748 81.2459 135.456 80.5377 135.456 79.664V72.3128C135.456 71.4391 134.748 70.7309 133.875 70.7309Z" fill="#1F3C88"/>
<path d="M109.275 70.7309H97.0162C96.1434 70.7309 95.4358 71.4391 95.4358 72.3128V79.664C95.4358 80.5377 96.1434 81.2459 97.0162 81.2459H109.275C110.148 81.2459 110.856 80.5377 110.856 79.664V72.3128C110.856 71.4391 110.148 70.7309 109.275 70.7309Z" fill="#1F3C88"/>
<path d="M84.6736 70.7309H72.4146C71.5418 70.7309 70.8342 71.4391 70.8342 72.3128V79.664C70.8342 80.5377 71.5418 81.2459 72.4146 81.2459H84.6736C85.5464 81.2459 86.254 80.5377 86.254 79.664V72.3128C86.254 71.4391 85.5464 70.7309 84.6736 70.7309Z" fill="#1F3C88"/>
<path d="M158.477 89.7465H146.218C145.345 89.7465 144.638 90.4547 144.638 91.3284V98.6797C144.638 99.5533 145.345 100.262 146.218 100.262H158.477C159.35 100.262 160.058 99.5533 160.058 98.6797V91.3284C160.058 90.4547 159.35 89.7465 158.477 89.7465Z" fill="#1F3C88"/>
<path d="M133.875 89.7465H121.617C120.744 89.7465 120.036 90.4547 120.036 91.3284V98.6797C120.036 99.5533 120.744 100.262 121.617 100.262H133.875C134.748 100.262 135.456 99.5533 135.456 98.6797V91.3284C135.456 90.4547 134.748 89.7465 133.875 89.7465Z" fill="#D3DFFF"/>
<path d="M109.275 89.7465H97.0162C96.1434 89.7465 95.4358 90.4547 95.4358 91.3284V98.6797C95.4358 99.5533 96.1434 100.262 97.0162 100.262H109.275C110.148 100.262 110.856 99.5533 110.856 98.6797V91.3284C110.856 90.4547 110.148 89.7465 109.275 89.7465Z" fill="#D3DFFF"/>
<path d="M84.6736 89.7465H72.4146C71.5418 89.7465 70.8342 90.4547 70.8342 91.3284V98.6797C70.8342 99.5533 71.5418 100.262 72.4146 100.262H84.6736C85.5464 100.262 86.254 99.5533 86.254 98.6797V91.3284C86.254 90.4547 85.5464 89.7465 84.6736 89.7465Z" fill="#D3DFFF"/>
<path d="M158.477 108.762H146.218C145.345 108.762 144.638 109.47 144.638 110.344V117.695C144.638 118.569 145.345 119.277 146.218 119.277H158.477C159.35 119.277 160.058 118.569 160.058 117.695V110.344C160.058 109.47 159.35 108.762 158.477 108.762Z" fill="#1F3C88"/>
<path d="M133.875 108.762H121.617C120.744 108.762 120.036 109.47 120.036 110.344V117.695C120.036 118.569 120.744 119.277 121.617 119.277H133.875C134.748 119.277 135.456 118.569 135.456 117.695V110.344C135.456 109.47 134.748 108.762 133.875 108.762Z" fill="#D3DFFF"/>
<path d="M109.275 108.762H97.0162C96.1434 108.762 95.4358 109.47 95.4358 110.344V117.695C95.4358 118.569 96.1434 119.277 97.0162 119.277H109.275C110.148 119.277 110.856 118.569 110.856 117.695V110.344C110.856 109.47 110.148 108.762 109.275 108.762Z" fill="#D3DFFF"/>
<path d="M84.6736 108.762H72.4146C71.5418 108.762 70.8342 109.47 70.8342 110.344V117.695C70.8342 118.569 71.5418 119.277 72.4146 119.277H84.6736C85.5464 119.277 86.254 118.569 86.254 117.695V110.344C86.254 109.47 85.5464 108.762 84.6736 108.762Z" fill="#D3DFFF"/>
<path d="M158.477 128.449H146.218C145.345 128.449 144.638 129.157 144.638 130.031V137.382C144.638 138.256 145.345 138.964 146.218 138.964H158.477C159.35 138.964 160.058 138.256 160.058 137.382V130.031C160.058 129.157 159.35 128.449 158.477 128.449Z" fill="#FBC343"/>
<path d="M133.875 128.449H121.617C120.744 128.449 120.036 129.157 120.036 130.031V137.382C120.036 138.256 120.744 138.964 121.617 138.964H133.875C134.748 138.964 135.456 138.256 135.456 137.382V130.031C135.456 129.157 134.748 128.449 133.875 128.449Z" fill="#D3DFFF"/>
<path d="M109.275 128.449H97.0162C96.1434 128.449 95.4358 129.157 95.4358 130.031V137.382C95.4358 138.256 96.1434 138.964 97.0162 138.964H109.275C110.148 138.964 110.856 138.256 110.856 137.382V130.031C110.856 129.157 110.148 128.449 109.275 128.449Z" fill="#D3DFFF"/>
<path d="M84.6736 128.449H72.4146C71.5418 128.449 70.8342 129.157 70.8342 130.031V137.382C70.8342 138.256 71.5418 138.964 72.4146 138.964H84.6736C85.5464 138.964 86.254 138.256 86.254 137.382V130.031C86.254 129.157 85.5464 128.449 84.6736 128.449Z" fill="#D3DFFF"/>
<path d="M138.278 37.0063C138.515 37.0317 138.79 37.0063 139.163 36.9682C139.798 36.882 140.397 36.6194 140.857 36.183C141.393 35.6959 141.78 34.9855 141.929 34.0252H141.893C141.443 34.5732 140.795 34.898 139.987 34.898C138.528 34.898 137.594 33.8007 137.594 32.4154C137.594 30.8804 138.703 29.5332 140.36 29.5332C142.018 29.5332 143.04 30.8804 143.04 32.9507C143.04 34.7343 142.441 35.9826 141.644 36.7564C141.021 37.3678 140.16 37.7421 139.29 37.8423C138.89 37.9044 138.542 37.9171 138.28 37.9044V37.0063H138.278ZM138.677 32.3405C138.677 33.3503 139.288 34.062 140.235 34.062C140.97 34.062 141.544 33.7004 141.831 33.2133C141.894 33.1144 141.929 32.9888 141.929 32.8137C141.929 31.4297 141.419 30.3692 140.272 30.3692C139.338 30.3692 138.676 31.1925 138.676 32.3405H138.677Z" fill="#3A6BEA"/>
<path d="M144.676 37.0063C144.913 37.0317 145.188 37.0063 145.56 36.9682C146.195 36.882 146.795 36.6194 147.255 36.183C147.791 35.6959 148.177 34.9855 148.327 34.0252H148.29C147.84 34.5732 147.193 34.898 146.384 34.898C144.925 34.898 143.991 33.8007 143.991 32.4154C143.991 30.8804 145.1 29.5332 146.758 29.5332C148.416 29.5332 149.437 30.8804 149.437 32.9507C149.437 34.7343 148.839 35.9826 148.042 36.7564C147.418 37.3678 146.558 37.7421 145.687 37.8423C145.288 37.9044 144.939 37.9171 144.677 37.9044V37.0063H144.676ZM145.075 32.3405C145.075 33.3503 145.686 34.062 146.633 34.062C147.368 34.062 147.942 33.7004 148.228 33.2133C148.292 33.1144 148.327 32.9888 148.327 32.8137C148.327 31.4297 147.816 30.3692 146.669 30.3692C145.735 30.3692 145.074 31.1925 145.074 32.3405H145.075Z" fill="#3A6BEA"/>
<path d="M17.8226 149.479L12.4592 147.466L0 158.427H14.7442L17.8226 149.479Z" fill="#102048"/>
<path d="M17.8226 149.479H29.6685L28.3263 157.98L14.7443 158.427L17.8226 149.479Z" fill="#F9B384"/>
<path d="M65.3669 101.824L64.9309 104.798L64.6699 106.59L62.7929 119.47L62.0756 124.389L61.4382 128.779L59.7691 140.215L58.6095 148.148C57.7375 154.114 52.6289 158.538 46.6014 158.538H20.3928L20.4258 158.202L21.2774 149.476L21.3978 148.248L39.6678 144.724L42.1214 126.885C40.9149 121.696 41.2101 116.703 41.7323 113.2C42.1746 110.213 42.7918 108.313 42.7918 108.313L50.9446 105.971L65.3656 101.823L65.3669 101.824Z" fill="#1F3C88"/>
<path d="M59.769 140.215L58.6094 148.148C57.7375 154.114 52.6288 158.538 46.6013 158.538H45.2605C57.2685 156.386 54.9214 141.034 59.769 140.215Z" fill="#102048"/>
<path d="M11.0571 154.113L8.48694 158.251L9.05628 158.605L11.6265 154.467L11.0571 154.113Z" fill="white"/>
<path d="M62.7928 119.469L61.438 128.777C57.6639 127.697 52.6858 122.296 52.6858 122.296L62.7916 119.469H62.7928Z" fill="#102048"/>
<path d="M90.5615 143.215C90.5615 143.215 84.1919 146.486 72.7947 144.39L82.2655 138.097L90.5628 143.215H90.5615Z" fill="#102048"/>
<path d="M87.0561 147.725L76.8718 147.953L76.8122 145.752L76.6512 139.717L85.7026 140.39L86.1309 142.718L87.0561 147.725Z" fill="#F9B384"/>
<path d="M86.1309 142.718L76.8122 145.752L76.6512 139.717L85.7026 140.39L86.1309 142.718Z" fill="#E28B6D"/>
<path d="M98.6079 158.511L87.3767 149.451L87.0586 147.727L76.8705 147.953L77.1531 158.511H98.6079Z" fill="#102048"/>
<path d="M90.9439 152.001L86.9202 154.516L87.2752 155.085L91.299 152.57L90.9439 152.001Z" fill="white"/>
<path d="M42.7917 108.314L79.234 102.521C80.9386 102.249 82.685 102.479 84.2616 103.181C87.3957 104.575 89.4551 107.643 89.5603 111.075L90.5602 143.214C90.5602 143.214 80.1681 141.033 72.7934 144.388L72.123 122.408C67.667 124.439 59.9489 124.869 52.1269 124.086L42.7904 108.314H42.7917Z" fill="#1F3C88"/>
<path d="M85.4275 142.208H84.7571C84.7571 136.646 84.8914 132.03 85.0093 127.957C85.2969 118.038 85.4554 112.575 82.9321 110.263C80.8891 108.392 76.807 108.45 70.8848 109.152C64.5379 109.892 62.007 103.128 61.9817 103.06L62.6116 102.832C62.7053 103.092 64.9866 109.187 70.8049 108.486C77.0732 107.745 81.1426 107.716 83.3833 109.769C86.1346 112.289 85.9813 117.532 85.6784 127.978C85.5605 132.046 85.4262 136.658 85.4262 142.209L85.4275 142.208Z" fill="#3A6BEA"/>
<path d="M72.8074 140.34L72.5691 139.712C72.654 139.681 81.1553 136.513 90.5362 138.861L90.3739 139.512C81.2047 137.216 72.8897 140.307 72.8074 140.339V140.34Z" fill="#3A6BEA"/>
<path d="M24.1149 158.634C23.0706 156.544 24.6865 147.883 24.7562 147.515L25.4152 147.641C24.9552 150.083 23.9312 156.766 24.7157 158.335L24.1162 158.635L24.1149 158.634Z" fill="#3A6BEA"/>
<path d="M61.7397 105.63C61.7397 105.63 59.1658 111.113 53.3588 114.804C51.3881 116.053 49.4504 116.623 47.7141 116.63C45.0932 116.636 42.9134 115.361 41.7335 113.2C42.1758 110.213 42.793 108.313 42.793 108.313L50.9458 105.971L59.1721 105.71L61.7397 105.63Z" fill="#102048"/>
<path d="M55.1952 72.5829V80.3503H62.7942V73.632L55.1952 72.5829Z" fill="#ED7545"/>
<path d="M62.7942 68.8293H55.1952V72.5829L62.7942 73.632V68.8293Z" fill="#F9B384"/>
<path d="M57.4358 69.8911C57.6031 69.8911 59.2684 72.5055 62.7941 73.632L62.7434 69.5562L57.4358 69.8923V69.8911Z" fill="#102048"/>
<path d="M63.6876 59.5447C63.6876 59.5447 67.8774 70.8425 62.4582 71.5694C57.0391 72.2962 56.2001 69.8352 56.2001 69.8352L54.5234 63.8502L58.2672 58.8166L63.6863 59.5435L63.6876 59.5447Z" fill="#F9B384"/>
<path d="M66.2567 64.9911C66.2687 64.3424 65.7531 63.8069 65.1051 63.7949C64.4571 63.7829 63.922 64.299 63.91 64.9476C63.898 65.5963 64.4136 66.1318 65.0617 66.1438C65.7097 66.1558 66.2447 65.6397 66.2567 64.9911Z" fill="#F9B384"/>
<path d="M57.9884 64.9132C57.9884 64.9132 58.2672 58.8724 63.6876 59.5435C63.6876 59.5435 60.0402 54.8549 55.2345 56.6727C52.7936 57.5962 51.1612 59.9291 50.9217 62.5296C50.6125 65.8913 52.5743 69.7223 55.3118 70.3934C55.3118 70.3934 56.2053 68.3244 57.7083 65.6959L57.9871 64.9132H57.9884Z" fill="#102048"/>
<path d="M59.2849 64.6316C59.7373 65.5957 59.437 66.6918 58.6132 67.0799C57.7894 67.4681 56.754 67 56.3016 66.0359C55.8491 65.0718 56.1495 63.9758 56.9733 63.5876C57.797 63.1994 58.8325 63.6675 59.2849 64.6316Z" fill="#F9B384"/>
<path d="M58.1342 65.9763C58.0417 65.9763 57.9669 65.9015 57.9669 65.8089C57.9669 65.7695 57.9479 64.8333 56.9099 64.6887C56.8187 64.676 56.7541 64.591 56.7667 64.4984C56.7794 64.4071 56.8643 64.3475 56.9556 64.3551C58.285 64.5416 58.3015 65.7949 58.3015 65.8076C58.3015 65.9002 58.2267 65.975 58.1342 65.975V65.9763Z" fill="#102048"/>
<path d="M83.5228 61.5021C83.5228 61.5021 89.3843 61.9499 92.5742 65.6972L85.3161 67.4872L83.5228 61.5021Z" fill="#BA5C36"/>
<path d="M93.9086 58.2876C93.9352 58.8242 92.46 61.5021 91.3739 63.4011C90.7364 64.4946 90.2409 65.3268 90.2409 65.3268L86.3324 66.4672L83.543 62.2594L83.4087 62.0514C83.4087 62.0514 83.4492 61.87 83.5227 61.5478V61.5414C83.5291 61.5351 83.5291 61.5211 83.5367 61.5008C84.0056 59.5079 85.6684 52.7148 86.6277 52.4878C87.473 52.2937 86.9762 56.0118 86.9762 56.0118C86.9762 56.0118 89.061 49.9646 90.2954 50.2132C91.2814 50.4073 89.35 56.2072 89.35 56.2072C89.35 56.2072 90.0407 55.4828 90.7377 55.7112C91.4816 55.9598 91.5754 56.6575 91.5754 56.6575C91.5754 56.6575 92.071 56.3086 92.5677 56.6042C93.0633 56.9061 93.0164 57.8461 93.0164 57.8461C93.0164 57.8461 93.8541 57.4503 93.9086 58.2889V58.2876Z" fill="#F9B384"/>
<path d="M53.4197 77.6229L50.7646 88.0124L46.6483 104.12C43.8525 105.362 40.9021 105.819 38.5626 105.43C35.8467 104.979 33.9495 103.396 34.0775 100.598C34.4134 93.0473 53.4197 77.6242 53.4197 77.6242V77.6229Z" fill="#ED7545"/>
<path d="M52.9102 80.5736L50.7646 88.0124L46.6482 104.121C43.8525 105.362 40.9021 105.819 38.5626 105.43C44.5293 88.2927 52.9102 80.5748 52.9102 80.5748V80.5736Z" fill="#BA5C36"/>
<path d="M69.5035 104.08C63.9728 104.455 46.5406 118.885 42.3495 109.577C42.3495 109.577 42.9325 74.8511 60.8412 75.4955C64.0121 75.6097 66.7952 77.7244 67.7533 80.7512C68.1829 82.1199 68.6113 83.9061 68.9471 86.2009C69.2893 88.5299 69.5441 91.3893 69.6315 94.8727C69.705 97.557 69.6721 100.612 69.5035 104.081V104.08Z" fill="#ED7545"/>
<path d="M69.6314 94.8715C66.8623 93.079 63.9728 87.6762 63.9728 87.6762L68.9471 86.1996C69.2893 88.5287 69.544 91.388 69.6314 94.8715Z" fill="#BA5C36"/>
<path d="M91.374 63.4011C90.7365 64.4946 90.241 65.3268 90.241 65.3268L86.3325 66.4672L83.5431 62.2594L83.5228 61.5478V61.5008H83.5368L91.374 63.3999V63.4011Z" fill="#E28B6D"/>
<path d="M60.8424 75.4955C60.8424 75.4955 69.4426 76.0994 74.6387 77.1066L83.5227 61.5021C86.2361 63.6751 89.2524 65.0769 92.5741 65.6972L84.7989 84.0342C83.0842 87.5164 79.5952 89.7731 75.7184 89.9063L62.4025 90.3617L60.8424 75.4955Z" fill="#ED7545"/>
<path d="M74.6387 77.3578C74.6235 77.3578 74.6083 77.3578 74.5931 77.354C74.4296 77.3235 58.1912 74.3424 55.4233 76.792C55.3194 76.8833 55.161 76.8745 55.0685 76.7692C54.9772 76.6652 54.9861 76.5066 55.09 76.414C58.0391 73.8046 74.0063 76.7324 74.6844 76.8592C74.8212 76.8846 74.9112 77.0165 74.8859 77.1523C74.8631 77.2741 74.7579 77.3578 74.6387 77.3578Z" fill="#BA5C36"/>
<path d="M206.54 144.109L207.656 158.427H189.052L198.438 151.94L198.27 142.992L206.54 144.109Z" fill="#102048"/>
<path d="M233.972 138.014L239 150.262L226.262 161L228.106 148.92L225.592 140.865L233.972 138.014Z" fill="#102048"/>
<path d="M211.458 68.9384C211.291 69.4078 211.136 70.0129 210.989 70.7232C210.741 71.9652 210.527 73.5483 210.345 75.4144C209.755 81.5085 209.508 90.5622 209.441 100.18C209.3 121.838 210.117 146.349 210.117 146.349L206.712 146.296L198.331 146.168L195.368 146.121C190.877 111.812 192.157 82.8379 192.833 72.7504C192.854 72.4015 192.88 72.0793 192.894 71.7774C193.035 69.9253 193.129 68.9384 193.129 68.9384H211.459H211.458Z" fill="#1F3C88"/>
<path d="M237.156 141.202L235.453 141.624L226.522 143.859L221.065 145.228C221.065 145.228 214.601 121.221 209.439 100.18C206.959 90.0332 204.773 80.5761 203.767 74.8372C203.418 72.81 203.21 71.2459 203.184 70.2805L210.988 70.7232L220.844 71.2865C220.844 71.2865 221.085 72.7022 221.555 75.2469C223.432 85.3877 228.937 113.468 237.157 141.2L237.156 141.202Z" fill="#1F3C88"/>
<path d="M221.555 75.2469C217.586 75.5755 213.804 75.5894 210.345 75.4144C207.992 75.2938 205.787 75.0858 203.768 74.8372C198.78 74.213 194.931 73.3073 192.833 72.7504C191.686 72.4421 191.063 72.2404 191.063 72.2404L192.893 71.7774L204.184 68.9384H211.458C211.291 69.4078 211.136 70.0129 210.989 70.7232L220.845 71.2865C220.845 71.2865 221.086 72.7022 221.556 75.2469H221.555Z" fill="#102048"/>
<path d="M209.788 102.8C209.245 100.524 206.684 89.7478 206.351 87.9223L201.169 85.9776L201.404 85.3497L206.986 87.4441V87.6762C207.024 88.1735 209.073 96.9012 210.441 102.644L209.789 102.8H209.788Z" fill="#3A6BEA"/>
<path d="M196.632 112.622C194.193 112.622 192.645 112.017 192.558 111.982L192.807 111.359C192.833 111.37 195.568 112.431 199.435 111.677L199.563 112.336C198.49 112.545 197.504 112.622 196.632 112.622Z" fill="#3A6BEA"/>
<path d="M216.042 112.15C214.481 112.15 213.172 111.907 213.069 111.888L213.194 111.228C213.24 111.237 217.775 112.077 219.868 110.612L220.252 111.161C219.137 111.942 217.483 112.15 216.042 112.15Z" fill="#3A6BEA"/>
<path d="M198.646 151.689L198.238 152.221L200.863 154.235L201.271 153.702L198.646 151.689Z" fill="white"/>
<path d="M228.22 148.592L227.968 149.214L231.543 150.667L231.795 150.045L228.22 148.592Z" fill="white"/>
<path d="M201.622 32.2505C201.622 32.2505 190.112 33.7043 187.208 46.6803L190.671 62.1174L189.107 72.4079C189.107 72.4079 204.751 73.9733 220.843 71.289L215.955 45.0578L201.624 32.2505H201.622Z" fill="#ED7545"/>
<path d="M208.774 65.1378C208.774 65.1378 205.31 62.5931 209.836 51.4349L212.854 62.4244L208.775 65.1365L208.774 65.1378Z" fill="#6E3620"/>
<path d="M208.321 43.0107L208.468 43.2876C208.658 43.6474 208.521 44.095 208.161 44.2855L195.283 51.1107L194.446 49.5288L207.324 42.7036C207.684 42.5131 208.131 42.6508 208.321 43.0107Z" fill="#102048"/>
<path d="M211.679 61.5021L211.337 61.3144L206.892 58.9117L199.443 54.8777C199.308 53.9783 199.41 53.2134 199.946 52.6895L199.577 52.5423C198.974 52.2873 198.531 51.7431 198.411 51.0924L198.397 51.0124C198.203 50.3617 198.297 49.7578 198.356 49.4217L198.531 49.1933C198.967 48.6225 199.161 48.3345 199.725 47.8842L198.773 47.9375C198.773 47.9375 196.426 48.5819 197.52 47.0723C198.272 46.0257 199.953 45.139 200.913 44.6963C201.314 44.5085 201.805 44.5885 202.113 44.9107C205.338 48.2597 211.01 52.2734 211.01 52.2734L211.07 53.0916L211.62 60.6281L211.681 61.5009L211.679 61.5021Z" fill="#F9B384"/>
<path d="M202.89 48.677L200.861 47.685C200.649 47.581 200.413 47.548 200.181 47.5886L198.021 47.9654L197.964 47.6343L200.124 47.2575C200.427 47.2042 200.733 47.2486 201.009 47.3831L203.038 48.3751L202.89 48.677Z" fill="#E28B6D"/>
<path d="M202.512 50.5849L200.079 49.6513C199.971 49.6094 199.857 49.5891 199.74 49.5891H198.355V49.2542H199.74C199.897 49.2542 200.052 49.2821 200.199 49.3392L202.632 50.2729L202.512 50.5862V50.5849Z" fill="#E28B6D"/>
<path d="M202.177 52.4865L199.967 51.6505C199.795 51.5846 199.605 51.5605 199.418 51.582L198.513 51.6848L198.475 51.3511L199.382 51.2484C199.619 51.2217 199.863 51.2522 200.088 51.3372L202.298 52.1732L202.179 52.4865H202.177Z" fill="#E28B6D"/>
<path d="M211.619 60.6294L211.337 61.3144L206.892 58.9117L209.835 51.4349L211.069 53.0929L211.619 60.6294Z" fill="#E28B6D"/>
<path d="M208.774 65.1378C208.774 65.1378 215.424 71.4577 220.842 71.2903L219.276 63.8515L208.773 65.1378H208.774Z" fill="#BA5C36"/>
<path d="M201.622 32.2505C201.622 32.2505 202.441 32.1655 203.806 32.2124C217.227 32.6717 227.508 44.232 226.853 57.6584C226.581 63.2083 225.142 68.7189 220.507 68.8293L208.774 65.1378C209.88 60.9833 210.707 56.6753 209.836 51.4349L215.283 54.0354L201.622 32.2505Z" fill="#ED7545"/>
<path d="M205.451 64.6228L189.05 65.0262L188.602 63.6358L186.953 58.5629L182.179 43.8844L198.578 43.481L205.451 64.6228Z" fill="#D3DFFF"/>
<path opacity="0.3" d="M190.432 56.8034C190.432 56.8034 190.405 61.3397 188.602 63.6358L186.953 58.5616L190.433 56.8034H190.432Z" fill="#1F3C88"/>
<path d="M182.478 56.4495C182.995 54.78 183.935 53.2387 184.971 51.8484C185.3 51.4057 186.016 50.3185 186.704 50.4834C188.101 50.8196 186.704 53.2793 186.704 53.2793C186.704 53.2793 188.045 51.2661 188.548 52.2721C189.052 53.2793 188.325 54.3969 188.325 54.3969C188.325 54.3969 190.448 52.999 189.666 55.7949C189.666 55.7949 191.399 55.5716 190.337 57.4732C189.579 58.8305 189.088 60.3427 188.139 61.5909C187.184 62.8468 185.386 63.5521 183.894 62.8354C182.138 61.993 181.914 59.7464 182.131 58.0364C182.199 57.4948 182.318 56.9658 182.478 56.4482V56.4495Z" fill="#F9B384"/>
<path d="M185.489 56.0067C185.466 56.0067 185.444 56.0017 185.421 55.9928C185.336 55.9547 185.298 55.8558 185.336 55.7708L186.928 52.163C186.964 52.078 187.064 52.04 187.148 52.0768C187.233 52.1148 187.271 52.2138 187.233 52.2987L185.641 55.9065C185.613 55.9687 185.553 56.0067 185.488 56.0067H185.489Z" fill="#E28B6D"/>
<path d="M187.124 57.3501C187.1 57.3501 187.076 57.3451 187.053 57.3336C186.969 57.2943 186.933 57.1941 186.972 57.1104L188.48 53.8806C188.521 53.7969 188.621 53.7614 188.703 53.7994C188.787 53.8388 188.824 53.939 188.784 54.0227L187.276 57.2525C187.248 57.3133 187.187 57.3501 187.124 57.3501Z" fill="#E28B6D"/>
<path d="M188.38 58.4398C188.353 58.4398 188.327 58.4335 188.301 58.4208C188.22 58.3777 188.187 58.2762 188.232 58.1937L189.531 55.7188C189.575 55.6376 189.675 55.6059 189.758 55.649C189.839 55.6921 189.872 55.7936 189.827 55.8761L188.528 58.351C188.498 58.4081 188.439 58.4411 188.38 58.4411V58.4398Z" fill="#E28B6D"/>
<path d="M193.8 44.9475H187.934L186.927 42.933H192.794L193.8 44.9475Z" fill="#102048"/>
<path d="M201.463 38.8064C199.723 38.8064 198.579 37.945 198.563 37.9324C198.453 37.8474 198.434 37.6901 198.517 37.5797C198.602 37.4706 198.759 37.449 198.87 37.534C198.966 37.6063 201.241 39.3011 204.286 37.4617C204.404 37.3894 204.56 37.4287 204.631 37.5467C204.702 37.666 204.664 37.8207 204.545 37.8918C203.408 38.5781 202.356 38.8064 201.463 38.8064Z" fill="#BA5C36"/>
<path d="M208.774 65.389C208.751 65.389 208.727 65.3852 208.703 65.3788C208.57 65.3395 208.494 65.1987 208.533 65.0655C210.944 56.8947 209.607 51.5516 209.593 51.4983L209.495 51.1228L219.878 52.8645C220.015 52.8874 220.108 53.0168 220.085 53.1538C220.062 53.292 219.925 53.3846 219.796 53.3605L210.159 51.7431C210.416 53.1094 211.103 58.1341 209.017 65.2076C208.984 65.3167 208.884 65.3877 208.777 65.3877L208.774 65.389Z" fill="#BA5C36"/>
<path d="M216.372 52.6933C216.372 52.6933 216.362 52.6933 216.356 52.6933C216.218 52.6844 216.112 52.5651 216.121 52.4269C216.123 52.3723 216.402 46.9594 212.643 41.3968C212.566 41.2813 212.596 41.1253 212.71 41.0479C212.826 40.9706 212.982 40.9997 213.06 41.1152C216.918 46.8249 216.626 52.4015 216.623 52.4573C216.614 52.5905 216.503 52.6933 216.372 52.6933Z" fill="#BA5C36"/>
<path d="M206.232 26.0739V32.5511C206.232 34.6405 204.604 36.334 202.596 36.334C200.587 36.334 198.96 34.6405 198.96 32.5511V26.0739H206.23H206.232Z" fill="#F9B384"/>
<path d="M202.796 26.9378C202.796 26.9378 202.418 30.9401 198.961 32.097V26.4126L202.796 26.9378Z" fill="#102048"/>
<path d="M196.216 18.6909C196.216 18.6909 195.088 27.7763 198.626 28.8533C202.165 29.9316 205.395 26.8008 205.395 26.8008L204.729 19.3074L199.498 16.2274L196.217 18.6909H196.216Z" fill="#F9B384"/>
<path d="M216.345 36.3479L209.366 36.8109C208.482 35.838 207.983 34.4692 207.656 32.9254C207.361 34.5149 207.594 35.8354 208.373 36.8782L206.483 37.0063C204.806 34.4958 203.398 28.9396 205.061 24.1876L205.255 23.0661C205.255 23.0661 204.061 19.4482 202.331 19.2947C202.331 19.2947 196.397 23.3021 193.756 18.8317C191.785 15.503 193.448 11.1265 198.188 14.355C198.188 14.355 209.579 9.00548 209.552 19.9721C209.546 21.9384 210.283 23.8717 211.738 25.1872C211.859 25.3077 211.993 25.4219 212.134 25.5297C214.689 27.5568 217.444 31.5972 216.344 36.3492L216.345 36.3479Z" fill="#102048"/>
<path d="M207.047 23.645C207.384 22.5981 206.932 21.5154 206.037 21.2269C205.142 20.9383 204.144 21.5531 203.807 22.6C203.47 23.6469 203.922 24.7296 204.817 25.0182C205.711 25.3067 206.71 24.6919 207.047 23.645Z" fill="#F9B384"/>
<path d="M205.198 23.7499C205.105 23.7499 205.03 23.6751 205.03 23.5825C205.03 22.8581 205.602 22.2188 206.279 22.1845H206.287C206.376 22.1845 206.45 22.2543 206.455 22.3443C206.46 22.437 206.388 22.5156 206.295 22.5207C205.846 22.5435 205.365 22.9761 205.365 23.5837C205.365 23.6763 205.29 23.7512 205.198 23.7512V23.7499Z" fill="#102048"/>
</g>
<defs>
<clipPath id="clip0_208_14749">
<rect width="239" height="161" fill="white"/>
</clipPath>
</defs>
</svg>
