<svg width="137" height="194" viewBox="0 0 137 194" fill="none" xmlns="http://www.w3.org/2000/svg">
<g clip-path="url(#clip0_196_14008)">
<path d="M104.85 166.579L100.305 167.985C100.305 167.985 79.2255 156.892 73.2107 147.428C67.196 137.965 55.1303 128.709 52.1422 127.208C50.5452 126.406 44.7204 125.889 39.0292 125.431L37.7873 125.331C33.2791 124.97 29.0604 124.634 27.3525 124.207C23.342 123.204 20.5868 121.705 20.8356 119.953C21.0867 118.201 24.3463 116.656 32.363 115.678C40.3841 114.701 27.3503 102.692 27.3503 102.692C27.3503 102.692 17.8271 98.19 16.3229 95.9387C14.8209 93.6875 15.3208 88.1824 24.093 91.9353C32.8629 95.6858 40.3819 98.4406 40.3819 98.4406L63.4365 84.3416L80.9537 99.8971L85.7198 101.62L90.7822 107.367L104.85 166.579Z" fill="#FCBF9C"/>
<path d="M0.253517 20.2749L25.819 115.916C26.8754 119.872 30.9448 122.22 34.9033 121.165L76.0293 110.21C79.9902 109.155 82.3427 105.093 81.2863 101.139L55.7231 5.50072C54.6667 1.54693 50.5973 -0.801411 46.6388 0.253084L5.51048 11.2067C1.54966 12.2612 -0.802852 16.3234 0.253517 20.2749Z" fill="#666666"/>
<path d="M74.6788 105.154L33.5528 116.107C30.6144 116.891 27.5855 115.141 26.8006 112.206L22.8149 97.2958L18.9016 82.6616L15.4316 69.6802L15.2959 69.1699L11.0252 53.1877L9.77203 48.5045L7.20915 38.9125L3.88623 26.4753L2.09696 19.787C1.31203 16.8516 3.06511 13.8281 6.00123 13.0468L21.3039 8.96886C22.7448 8.585 24.2242 9.44079 24.6087 10.8791L24.62 10.9198C25.0113 12.383 26.5179 13.2523 27.9814 12.8617C29.4472 12.471 30.3158 10.9695 29.9245 9.50627L29.9132 9.46562C29.5286 8.02501 30.3859 6.55052 31.8268 6.1644L47.1295 2.09093C50.0656 1.3074 53.0945 3.05736 53.8794 5.99279L55.6687 12.6833L68.6889 61.391L69.4422 64.2113L74.2377 82.1468L74.5996 83.5016L74.8824 84.5606L78.5853 98.4158C79.3702 101.349 77.6149 104.372 74.6765 105.156L74.6788 105.154Z" fill="#ED9E49"/>
<path d="M35.3849 81.519C29.7027 83.9103 24.0024 83.9486 18.8992 82.6616L15.4293 69.6802L15.2936 69.1699L11.0228 53.1876L9.76967 48.5045L7.20679 38.9124C8.72687 37.316 13.8255 32.4974 21.72 30.3975C31.2545 27.8572 49.0521 34.7667 51.8661 51.1058C54.6778 67.447 45.4351 77.2852 35.3827 81.5168L35.3849 81.519Z" fill="#FFF8F0"/>
<path d="M74.8824 84.5606C70.7768 88.3879 66.2934 91.6982 66.2934 91.6982C66.2934 91.6982 61.326 92.1362 56.3133 89.2414C51.3007 86.3444 46.7879 76.1043 52.4158 68.1583C57.0756 61.5785 63.3143 60.2733 68.6889 61.3888L69.4422 64.209L74.2377 82.1445L74.5996 83.4993L74.8824 84.5583V84.5606Z" fill="#FFEBD6"/>
<path d="M74.5996 83.5016C70.9442 87.0896 66.0378 89.0924 66.0378 89.0924C66.0378 89.0924 61.9006 89.4582 57.7249 87.0467C53.5492 84.6351 49.7897 76.1066 54.4766 69.486C58.7722 63.4165 64.6806 62.7346 69.4422 64.2113L74.5996 83.5016Z" fill="#B3722B"/>
<path d="M32.3267 72.0624C26.0563 74.7021 19.7521 72.7489 15.5334 69.7547C15.4994 69.7299 15.4632 69.7051 15.4316 69.6802L15.2959 69.1699L11.0251 53.1877L9.77197 48.5045C11.9141 45.5488 16.549 40.6015 23.8034 40.1792C29.9493 39.8202 40.8523 42.9046 42.6076 53.0951C44.3607 63.2855 38.5971 69.4228 32.3267 72.0624Z" fill="#FFEBD6"/>
<path d="M74.6787 105.154L33.5527 116.107C30.6143 116.891 27.5854 115.141 26.8005 112.206L22.8148 97.2958L74.6018 83.5016L78.5875 98.4158C79.3724 101.349 77.6171 104.372 74.6787 105.156V105.154Z" fill="#C48949"/>
<path d="M55.6686 12.6833L3.88391 26.4753L2.09464 19.787C1.30971 16.8516 3.06279 13.8281 5.99891 13.0468L21.3016 8.96886C22.7425 8.585 24.2218 9.44078 24.6064 10.8791L24.6177 10.9198C25.009 12.383 26.5155 13.2523 27.9791 12.8617C29.4449 12.471 30.3135 10.9695 29.9222 9.50627L29.9108 9.46562C29.5263 8.02501 30.3836 6.55052 31.8245 6.1644L47.1272 2.09093C50.0633 1.3074 53.0922 3.05736 53.8771 5.99279L55.6663 12.6833H55.6686Z" fill="#C48949"/>
<path d="M34.8376 65.9997C32.9827 69.7299 26.9046 71.735 21.6974 71.1818C19.4105 70.938 17.1326 70.0686 15.2959 69.1699L11.0251 53.1877C11.5002 53.1402 12.0046 53.0499 12.5339 52.9099C15.8546 52.0248 17.9718 45.1175 22.0729 42.9904C26.1717 40.8634 29.3657 41.9924 32.2407 44.1646C35.2108 46.4068 36.5002 49.2203 35.0208 52.7383C34.0753 54.985 36.6902 62.2694 34.833 66.0019L34.8376 65.9997Z" fill="white"/>
<path d="M27.3209 50.0061C25.8528 47.8136 23.075 48.6784 21.365 50.04C19.6549 51.4016 19.9625 55.4637 23.109 56.5657C26.2577 57.6698 30.5579 54.8405 27.3209 50.0061Z" fill="#FFB730"/>
<path d="M48.5568 41.6921C47.091 40.9266 44.7204 39.2263 43.1935 40.7934C41.6667 42.3605 43.0148 44.9798 43.6686 45.971C44.3223 46.9623 44.8494 55.2357 50.1357 55.1228C55.4221 55.0099 57.7135 49.9971 57.0033 47.3394C56.293 44.6817 51.6649 43.3156 48.5568 41.6921Z" fill="#DED466"/>
<path d="M49.8032 78.4549C49.8032 78.4549 42.1123 80.1145 40.8772 80.8326C39.6421 81.5506 40.1352 83.8787 41.2414 84.6193C42.3475 85.3599 52.7438 81.5552 52.7438 81.5552L49.8054 78.4549H49.8032Z" fill="#FFEBD6"/>
<path d="M43.9558 95.6C45.546 90.9192 50.9975 91.1472 54.7547 92.7888C58.5097 94.4281 59.9189 101.927 54.7547 105.443C49.5905 108.958 40.85 104.743 43.9558 95.6Z" fill="#E6AC6E"/>
<path d="M48.7219 45.5217C50.0565 43.8282 53.3839 45.2281 53.3568 48.0665C53.3296 50.9048 50.7373 51.099 49.681 50.9048C48.6246 50.7083 46.5639 48.2629 48.7219 45.5217Z" fill="#EBA963"/>
<path d="M125.839 158.978L108.546 171.442C108.546 171.442 106.499 169.108 104.23 166.771C102.956 165.452 101.613 164.133 100.527 163.232C97.5208 160.73 82.4828 149.223 79.7276 147.428C76.9725 145.633 72.4597 134.713 69.7046 130.365C66.9449 126.013 64.4408 118.704 61.4346 116.2C58.4283 113.698 52.6624 106.944 49.4051 103.693C47.3896 101.681 45.5664 97.3771 46.245 94.8549C46.5843 93.5949 47.5412 92.7843 49.4119 92.9175C49.8575 92.9514 50.3529 93.0372 50.9071 93.1839C58.4261 95.1846 68.0736 104.944 71.8331 110.946C73.792 114.073 76.9702 115.471 79.5715 115.771C79.5738 115.773 79.5761 115.773 79.5806 115.773C80.8224 115.918 81.9308 115.812 82.7112 115.523C82.8402 115.475 82.9578 115.423 83.0664 115.364C83.5663 115.103 83.8604 114.746 83.8604 114.321C83.8604 112.784 81.483 108.87 80.0398 103.74C79.4946 101.789 79.0807 99.6599 78.9879 97.4177C78.9676 96.93 78.9608 96.4355 78.9744 95.9342C79.0581 92.3214 79.938 81.6048 79.2028 77.931C79.144 77.6307 79.0739 77.3778 78.9879 77.1814V77.1769C78.9246 77.0188 78.85 76.8991 78.7685 76.8156C78.7074 76.7523 78.6441 76.6891 78.5853 76.6281C78.4292 76.4723 78.2731 76.3233 78.1171 76.1788C75.9794 74.2008 73.8735 73.2998 73.8735 73.2998L70.7293 61.6462C70.7293 61.6462 76.3414 64.0374 82.3584 66.2887C88.3708 68.5399 91.3771 70.4163 95.5143 90.305C99.6493 110.191 122.731 149.594 122.731 149.594L125.837 158.974L125.839 158.978Z" fill="#FCD1B8"/>
<path d="M137 163.067C137 163.067 132.01 170.923 125.244 180.68C118.479 190.439 111.055 194 111.055 194C110.265 192.79 109.496 191.482 108.752 190.123C108.462 189.597 108.179 189.062 107.899 188.522C106.732 186.271 105.637 183.92 104.644 181.64C104.354 180.978 104.076 180.323 103.807 179.675C102.746 177.133 101.83 174.75 101.108 172.777C100.882 172.16 100.674 171.585 100.486 171.059C99.7104 168.88 99.2761 167.516 99.2761 167.516C111.649 165.949 121.485 147.428 121.485 147.428C121.72 147.844 122.591 148.824 123.808 150.097C124.025 150.325 124.256 150.567 124.496 150.813C125.968 152.331 127.805 154.155 129.61 155.925C129.87 156.18 130.128 156.433 130.384 156.684C132.241 158.497 134.007 160.2 135.247 161.39C135.609 161.735 135.926 162.04 136.186 162.286C136.704 162.781 137.005 163.067 137.005 163.067H137Z" fill="#FFB730"/>
<path d="M36.6857 69.5244C37.5181 66.8351 39.4363 63.4932 42.4946 63.5474C45.5506 63.6039 47.5548 66.23 47.1793 68.9825C46.8038 71.735 43.9988 74.3611 41.9562 74.4853C39.9136 74.6095 39.4114 76.1901 38.3777 75.6911C37.9117 75.4675 37.1879 75.7159 37.5 73.6724C37.6041 72.9995 35.9664 71.8457 36.6857 69.5244Z" fill="#FFC65C"/>
<path d="M56.6685 107.771C58.7337 107.461 60.6519 105.7 61.8598 104.101C62.2987 103.519 61.3056 102.939 60.8758 103.528C60.3058 104.307 59.6385 105.03 58.892 105.644C58.1275 106.269 57.2408 106.664 56.4355 107.222C56.1437 107.425 56.3314 107.823 56.6685 107.773V107.771Z" fill="#F2B183"/>
<path d="M59.815 108.977C60.8804 108.581 61.7151 107.703 62.2738 106.737C62.5973 106.177 61.7083 105.662 61.4075 106.231C60.9302 107.132 60.2674 107.807 59.5436 108.509C59.3536 108.694 59.5458 109.074 59.815 108.974V108.977Z" fill="#F2B183"/>
<path d="M81.4671 73.3744C80.5849 74.5282 79.6869 75.6775 78.5898 76.6327C78.4337 76.4769 78.2777 76.3278 78.1216 76.1833C78.8975 75.0453 79.757 73.9705 80.5193 72.8234C80.9152 72.2273 81.8833 72.8257 81.4649 73.3766L81.4671 73.3744Z" fill="#F2B183"/>
<path d="M78.9902 77.1814C79.8159 76.5288 80.8247 76.0749 81.8042 75.7701C82.4579 75.5646 82.7429 76.6485 82.0824 76.7794C81.0125 76.994 80.1167 77.4162 79.2051 77.9356L78.9902 77.1814Z" fill="#F2B183"/>
<path d="M39.4069 123.764C39.3458 124.261 39.2848 124.936 39.0269 125.431L37.785 125.331C37.7986 124.81 38.1198 124.295 38.2533 123.767C38.4772 122.881 38.441 121.969 38.5994 121.075C38.6401 120.842 39.0088 120.802 39.1106 121.007C39.5358 121.877 39.5313 122.818 39.4092 123.764H39.4069Z" fill="#F2B183"/>
<path d="M52.9723 95.4894C53.2075 96.0494 53.5513 96.4626 53.9336 96.9345C54.3046 97.3907 54.5738 97.6097 54.3589 98.2216C54.2006 98.6777 53.7956 99.1406 53.4858 99.4884C53.2098 99.7977 52.9112 100.066 52.5809 100.315C52.0607 100.705 51.8209 100.947 51.174 100.73C50.4297 100.482 49.9954 99.6284 49.4933 99.0232C49.2829 98.7681 48.8305 99.109 49.0295 99.38C49.5476 100.087 50.1741 101.241 51.0405 101.539C52.1331 101.916 53.2369 100.886 53.9155 100.173C54.4539 99.608 55.4401 98.5039 55.3338 97.6458C55.2863 97.2597 54.9674 97.0045 54.7095 96.7426C54.2073 96.2346 53.7436 95.7197 53.1103 95.3788C53.0447 95.3449 52.9383 95.4036 52.9723 95.4849V95.4894Z" fill="#EDB187"/>
<path d="M124.493 150.813C121.767 155.979 118.243 160.915 114.049 164.896C111.763 167.064 109.211 168.997 106.435 170.496C105.132 171.201 103.78 171.81 102.389 172.314C101.984 172.461 101.552 172.626 101.106 172.779C100.88 172.163 100.672 171.587 100.484 171.061C100.984 170.946 101.475 170.826 101.934 170.663C103.373 170.153 104.757 169.512 106.092 168.769C108.734 167.299 111.147 165.452 113.326 163.359C117.447 159.396 120.544 154.713 123.803 150.097C124.02 150.325 124.251 150.567 124.491 150.813H124.493Z" fill="#FFF8F0"/>
<path d="M130.379 156.684C127.309 162.13 123.498 167.288 119.082 171.637C115.015 175.642 110.073 179.452 104.644 181.637L103.807 179.673C105.958 178.763 108.03 177.731 110.027 176.442C112.966 174.549 115.655 172.303 118.128 169.841C122.423 165.56 125.973 160.728 129.608 155.923C129.868 156.178 130.126 156.431 130.381 156.682L130.379 156.684Z" fill="#FFF8F0"/>
<path d="M136.181 162.286C134.559 165.154 132.442 167.861 130.499 170.444C128.128 173.599 125.541 176.584 122.751 179.377C118.564 183.57 113.9 187.251 108.75 190.123C108.46 189.597 108.177 189.062 107.897 188.522C113.077 185.67 117.752 181.944 121.93 177.754C124.62 175.055 127.101 172.156 129.49 169.189C131.506 166.685 133.252 163.928 135.24 161.392C135.602 161.737 135.919 162.042 136.179 162.288L136.181 162.286Z" fill="#FFF8F0"/>
<path d="M49.0318 99.38C49.0318 99.38 47.1611 94.1075 53.1125 95.381L54.7525 97.2823L54.2729 99.38L52.6601 100.735L50.9681 100.895L49.034 99.38H49.0318Z" fill="#EDB187"/>
</g>
<defs>
<clipPath id="clip0_196_14008">
<rect width="137" height="194" fill="white"/>
</clipPath>
</defs>
</svg>
