<svg width="317" height="180" viewBox="0 0 317 180" fill="none" xmlns="http://www.w3.org/2000/svg">
<path d="M138.107 67.9419H97.0438V179.094H138.107V67.9419Z" fill="#B6D1F8"/>
<path d="M44.207 160.875C44.207 160.875 20.7601 161.849 15.604 173.567C15.604 173.567 14.6549 176.214 18.3655 176.648C22.0773 177.081 33.3421 163.065 44.207 161.768V160.875Z" fill="#82B378"/>
<path d="M44.2071 159.92C44.2071 159.92 31.3216 148.33 21.4905 152.399C11.6605 156.469 28.3707 156.772 33.3574 157.619C38.3453 158.467 44.2059 160.874 44.2059 160.874V159.92H44.2071Z" fill="#82B378"/>
<path d="M43.8742 162.682C43.8742 162.682 32.1307 166.65 34.123 172.994C36.1154 179.337 43.8742 162.682 43.8742 162.682Z" fill="#82B378"/>
<path d="M137.146 175.413C136.895 177.564 135.212 179.199 133.241 179.202L51.3272 179.387C45.6207 178.724 41.549 173.044 42.2794 166.765L42.7922 162.36C43.5684 155.691 49.162 150.812 55.2225 151.516L134.569 171.336C136.26 171.759 137.368 173.511 137.147 175.413H137.146Z" fill="#F99746"/>
<path d="M56.6715 164.699L56.0093 170.389C55.9893 170.564 55.8294 170.69 55.6553 170.67L55.5459 170.657C55.3707 170.637 55.2449 170.477 55.2648 170.303L55.927 164.613C55.947 164.438 56.1069 164.312 56.281 164.332L56.3892 164.345C56.5644 164.365 56.6903 164.525 56.6703 164.699H56.6715Z" fill="#ED7D2B"/>
<path d="M61.7593 170.359L61.0972 176.05C61.0772 176.225 60.9173 176.351 60.7432 176.331L60.635 176.318C60.4597 176.298 60.3339 176.138 60.3539 175.964L61.016 170.274C61.036 170.099 61.196 169.973 61.3701 169.993L61.4783 170.006C61.6535 170.026 61.7793 170.186 61.7593 170.359Z" fill="#ED7D2B"/>
<path d="M77.8638 164.699L77.2017 170.389C77.1817 170.564 77.0217 170.69 76.8477 170.67L76.7395 170.657C76.5642 170.637 76.4384 170.477 76.4584 170.303L77.1205 164.613C77.1405 164.438 77.3005 164.312 77.4745 164.332L77.5839 164.345C77.7592 164.365 77.885 164.525 77.865 164.699H77.8638Z" fill="#ED7D2B"/>
<path d="M80.0796 170.58L79.4174 176.271C79.3975 176.446 79.2375 176.571 79.0634 176.552L78.9552 176.539C78.78 176.519 78.6542 176.359 78.6741 176.185L79.3363 170.495C79.3563 170.32 79.5162 170.194 79.6903 170.214L79.7985 170.227C79.9737 170.247 80.0996 170.406 80.0796 170.58Z" fill="#ED7D2B"/>
<path d="M84.8828 163.051L84.2207 168.742C84.2007 168.917 84.0407 169.042 83.8667 169.022L83.7573 169.009C83.5821 168.989 83.4562 168.83 83.4762 168.655L84.1384 162.964C84.1584 162.789 84.3183 162.664 84.4924 162.683L84.6006 162.696C84.7758 162.716 84.9017 162.876 84.8817 163.05L84.8828 163.051Z" fill="#ED7D2B"/>
<path d="M92.9197 168.714L93.3396 165.105C93.356 164.964 93.4851 164.862 93.6265 164.878L93.8566 164.905C93.998 164.921 94.1002 165.05 94.0837 165.191L93.6639 168.8C93.6473 168.942 93.5184 169.043 93.377 169.027L93.1468 169C93.0055 168.984 92.9033 168.855 92.9197 168.714Z" fill="#ED7D2B"/>
<path d="M94.083 173.985L94.503 170.375C94.5195 170.233 94.6485 170.132 94.7899 170.148L95.02 170.175C95.1614 170.192 95.2636 170.321 95.2471 170.462L94.8271 174.072C94.8107 174.213 94.6816 174.315 94.5403 174.299L94.3101 174.272C94.1688 174.255 94.0665 174.126 94.083 173.985Z" fill="#ED7D2B"/>
<path d="M99.636 164.996L99.1585 169.099C99.1408 169.249 99.0044 169.357 98.8538 169.34L98.6563 169.316C98.5057 169.298 98.3975 169.161 98.4152 169.012L98.8927 164.909C98.9103 164.758 99.0467 164.65 99.1973 164.668L99.3949 164.691C99.5454 164.709 99.6536 164.845 99.636 164.996Z" fill="#ED7D2B"/>
<path d="M103.68 173.692L104.157 169.589C104.174 169.439 104.311 169.33 104.462 169.348L104.659 169.371C104.81 169.388 104.919 169.525 104.901 169.676L104.424 173.778C104.406 173.929 104.269 174.037 104.119 174.019L103.92 173.996C103.769 173.979 103.661 173.842 103.678 173.692L103.68 173.692Z" fill="#ED7D2B"/>
<path d="M107.79 171.682L108.268 167.579C108.285 167.428 108.422 167.32 108.573 167.338L108.77 167.361C108.921 167.378 109.029 167.515 109.012 167.665L108.534 171.768C108.517 171.918 108.38 172.027 108.229 172.009L108.032 171.986C107.881 171.969 107.773 171.832 107.79 171.681L107.79 171.682Z" fill="#ED7D2B"/>
<path d="M109.906 173.105L109.429 177.208C109.411 177.358 109.52 177.495 109.671 177.512L109.868 177.535C110.019 177.553 110.156 177.445 110.173 177.294L110.65 173.192C110.668 173.041 110.56 172.904 110.409 172.887L110.211 172.864C110.06 172.846 109.924 172.954 109.906 173.105Z" fill="#ED7D2B"/>
<path d="M105.655 177.288L105.876 175.388C105.888 175.281 105.985 175.205 106.091 175.217L106.45 175.259C106.556 175.271 106.633 175.368 106.62 175.474L106.399 177.374C106.387 177.48 106.29 177.557 106.184 177.544L105.825 177.503C105.719 177.49 105.643 177.394 105.655 177.288Z" fill="#ED7D2B"/>
<path d="M102.289 168.072L102.51 166.172C102.522 166.066 102.619 165.99 102.725 166.002L103.084 166.044C103.19 166.056 103.266 166.153 103.254 166.259L103.033 168.159C103.021 168.265 102.924 168.341 102.818 168.329L102.459 168.287C102.353 168.275 102.276 168.179 102.289 168.072Z" fill="#ED7D2B"/>
<path d="M99.3873 176.72L99.8646 172.617C99.8821 172.467 100.019 172.359 100.17 172.376L100.367 172.399C100.518 172.416 100.626 172.553 100.609 172.704L100.131 176.806C100.114 176.957 99.977 177.065 99.8263 177.047L99.6289 177.025C99.4782 177.007 99.3698 176.87 99.3873 176.72Z" fill="#ED7D2B"/>
<path d="M90.0201 172.951L89.6002 176.561C89.5837 176.702 89.4544 176.804 89.3132 176.788L89.0839 176.761C88.9428 176.744 88.8404 176.615 88.8569 176.474L89.2768 172.864C89.2932 172.723 89.4226 172.621 89.5637 172.638L89.7931 172.665C89.9342 172.681 90.0365 172.81 90.0201 172.951Z" fill="#ED7D2B"/>
<path d="M52.9467 168.026L52.0211 175.983C51.9976 176.187 51.8106 176.335 51.6059 176.311C51.4013 176.287 51.2531 176.1 51.2766 175.896L52.2022 167.939C52.2257 167.735 52.4127 167.587 52.6174 167.61C52.822 167.634 52.9702 167.82 52.9467 168.025V168.026Z" fill="#ED7D2B"/>
<path d="M59.7676 161.732L60.1903 158.099C60.2069 157.957 60.3361 157.854 60.4798 157.87L60.7053 157.896C60.8478 157.913 60.9512 158.042 60.9345 158.186L60.5118 161.819C60.4952 161.961 60.366 162.064 60.2223 162.048L59.9968 162.022C59.8543 162.005 59.7509 161.876 59.7676 161.732Z" fill="#ED7D2B"/>
<path d="M68.6017 161.733L69.0244 158.099C69.041 157.957 69.1702 157.854 69.3139 157.87L69.5394 157.897C69.6819 157.913 69.7853 158.042 69.7686 158.186L69.3459 161.819C69.3293 161.961 69.2001 162.065 69.0564 162.048L68.8309 162.022C68.6884 162.005 68.585 161.876 68.6017 161.733Z" fill="#ED7D2B"/>
<path d="M64.7864 167.625L65.2091 163.992C65.2257 163.85 65.3549 163.747 65.4986 163.763L65.7241 163.789C65.8666 163.806 65.97 163.935 65.9533 164.079L65.5305 167.712C65.514 167.854 65.3847 167.958 65.2411 167.941L65.0156 167.915C64.873 167.898 64.7697 167.769 64.7864 167.625Z" fill="#ED7D2B"/>
<path d="M47.653 158.187L47.2308 161.82C47.2144 161.962 47.0838 162.065 46.9415 162.049L46.7157 162.023C46.5734 162.007 46.4699 161.876 46.4863 161.734L46.9086 158.101C46.925 157.959 47.0556 157.856 47.1979 157.872L47.4237 157.898C47.566 157.914 47.6695 158.045 47.653 158.187Z" fill="#ED7D2B"/>
<path d="M47.653 166.898L47.2308 170.531C47.2144 170.673 47.0838 170.777 46.9415 170.76L46.7157 170.734C46.5734 170.718 46.4699 170.587 46.4863 170.445L46.9086 166.812C46.925 166.67 47.0556 166.567 47.1979 166.583L47.4237 166.609C47.566 166.625 47.6695 166.756 47.653 166.898Z" fill="#ED7D2B"/>
<path d="M51.5695 160.17L50.9756 165.279C50.9568 165.445 50.805 165.566 50.638 165.546L50.4981 165.529C50.3323 165.51 50.2111 165.358 50.2311 165.192L50.825 160.083C50.8439 159.918 50.9956 159.797 51.1626 159.817L51.3025 159.833C51.4684 159.852 51.5895 160.005 51.5695 160.17Z" fill="#ED7D2B"/>
<path d="M55.56 153.813L54.9661 158.921C54.9473 159.087 54.7944 159.207 54.6285 159.188L54.4886 159.172C54.3228 159.152 54.2028 159 54.2216 158.834L54.8155 153.726C54.8344 153.56 54.9873 153.44 55.1531 153.459L55.293 153.475C55.4589 153.494 55.5788 153.647 55.56 153.813Z" fill="#ED7D2B"/>
<path d="M68.8066 169.457L68.1033 175.501C68.0821 175.681 67.9186 175.81 67.7387 175.79L67.6481 175.78C67.4682 175.758 67.3388 175.595 67.36 175.415L68.0633 169.371C68.0845 169.192 68.248 169.062 68.4279 169.083L68.5185 169.094C68.6984 169.115 68.8278 169.279 68.8066 169.458V169.457Z" fill="#ED7D2B"/>
<path d="M74.706 159.881L73.7804 167.838C73.7569 168.042 73.5699 168.191 73.3652 168.166C73.1606 168.142 73.0124 167.956 73.0359 167.751L73.9615 159.794C73.985 159.59 74.172 159.442 74.3767 159.465C74.5813 159.489 74.7295 159.676 74.706 159.88V159.881Z" fill="#ED7D2B"/>
<path d="M117.575 75.0528C128.914 75.0528 138.107 71.8691 138.107 67.9419C138.107 64.0147 128.914 60.8311 117.575 60.8311C106.236 60.8311 97.0438 64.0147 97.0438 67.9419C97.0438 71.8691 106.236 75.0528 117.575 75.0528Z" fill="#C2DBFD"/>
<path d="M189.746 46.8385H148.683V179.094H189.746V46.8385Z" fill="#F2C5A0"/>
<path d="M169.215 53.9494C180.554 53.9494 189.746 50.7657 189.746 46.8385C189.746 42.9113 180.554 39.7277 169.215 39.7277C157.876 39.7277 148.683 42.9113 148.683 46.8385C148.683 50.7657 157.876 53.9494 169.215 53.9494Z" fill="#F5D1B7"/>
<path d="M235.924 100.943H202.115V179.094H235.924V100.943Z" fill="#D8E3B7"/>
<path d="M219.019 108.054C228.355 108.054 235.924 104.87 235.924 100.943C235.924 97.0158 228.355 93.8321 219.019 93.8321C209.684 93.8321 202.115 97.0158 202.115 100.943C202.115 104.87 209.684 108.054 219.019 108.054Z" fill="#DCE9BF"/>
<path d="M285.585 135.08V171.902C285.585 175.875 282.362 179.094 278.386 179.094H218.869C214.892 179.094 211.669 175.875 211.669 171.902V164.99C213.36 164.443 214.722 162.98 214.722 161.188C214.722 159.301 213.739 157.069 211.669 156.827V135.474C212.312 135.302 212.925 134.943 213.384 134.446C214.355 133.393 214.203 131.634 213.322 130.492C214.643 128.9 216.638 127.887 218.869 127.887H278.386C282.362 127.887 285.585 131.107 285.585 135.079V135.08Z" fill="#FFA412"/>
<path d="M256.061 133.653V173.329C256.061 176.513 253.477 179.094 250.29 179.094H211.669V164.99C213.36 164.442 214.722 162.98 214.722 161.188C214.722 159.301 213.739 157.068 211.669 156.826V152.472C212.336 152.407 212.997 152.196 213.615 151.87C215.526 150.863 217.027 148.756 217.027 146.436C217.027 143.707 214.397 141.682 211.669 141.48V135.473C212.312 135.301 212.925 134.942 213.384 134.445C214.355 133.392 214.203 131.633 213.322 130.491C213.213 130.35 213.093 130.217 212.962 130.098C212.584 129.749 212.137 129.521 211.669 129.409V127.886H250.29C253.477 127.886 256.061 130.467 256.061 133.651V133.653Z" fill="#FFB93E"/>
<path d="M234.327 147.772C234.327 150.091 232.826 152.198 230.913 153.205C230.158 153.602 229.34 153.829 228.525 153.829C227.203 153.829 225.995 153.338 225.076 152.527C225.074 152.525 225.073 152.524 225.071 152.521C223.99 151.567 223.309 150.173 223.309 148.619C223.309 145.741 225.643 142.801 228.525 142.801C231.406 142.801 234.325 144.895 234.325 147.772H234.327Z" fill="#FFA412"/>
<path opacity="0.5" d="M233.439 148.754C233.439 150.585 232.358 152.263 230.913 153.205C230.158 153.602 229.34 153.829 228.525 153.829C227.203 153.829 225.995 153.338 225.076 152.527C225.074 152.525 225.073 152.524 225.071 152.521C224.341 151.72 223.897 150.655 223.897 149.488C223.897 146.995 225.92 144.449 228.414 144.449C230.909 144.449 233.44 146.263 233.44 148.754H233.439Z" fill="#FFB93E"/>
<path d="M218.987 138.479C218.032 137.602 217.732 136.186 218.041 135.019C218.163 134.559 218.38 134.137 218.688 133.801C219.189 133.257 219.849 132.946 220.53 132.876C220.532 132.876 220.532 132.876 220.534 132.876C221.336 132.793 222.169 133.042 222.809 133.63C223.994 134.721 224.321 136.793 223.23 137.978C222.14 139.162 220.171 139.57 218.985 138.479H218.987Z" fill="#FFA412"/>
<path opacity="0.5" d="M218.918 137.743C218.164 137.049 217.882 135.97 218.041 135.019C218.163 134.559 218.38 134.137 218.688 133.801C219.189 133.257 219.849 132.946 220.53 132.876C220.532 132.876 220.532 132.876 220.534 132.876C221.14 132.88 221.748 133.1 222.229 133.542C223.255 134.486 223.538 136.282 222.594 137.307C221.648 138.332 219.944 138.685 218.917 137.741L218.918 137.743Z" fill="#FFB93E"/>
<path d="M244.672 140.067C243.621 141.273 241.885 141.692 240.434 141.352C239.86 141.218 239.332 140.966 238.909 140.597C238.221 139.999 237.815 139.197 237.703 138.359C237.703 138.357 237.703 138.356 237.703 138.354C237.573 137.369 237.85 136.335 238.555 135.527C239.859 134.029 242.405 133.554 243.905 134.857C245.404 136.159 245.976 138.57 244.673 140.067H244.672Z" fill="#FFA412"/>
<path opacity="0.5" d="M243.765 140.177C242.936 141.13 241.614 141.514 240.434 141.352C239.86 141.218 239.332 140.966 238.909 140.597C238.221 139.999 237.815 139.197 237.703 138.359C237.703 138.357 237.703 138.356 237.703 138.354C237.687 137.608 237.937 136.852 238.466 136.243C239.596 134.946 241.802 134.535 243.099 135.663C244.398 136.791 244.893 138.879 243.765 140.176V140.177Z" fill="#FFB93E"/>
<path d="M246.256 159.001C245.537 160.908 243.65 162.176 241.765 162.413C241.021 162.506 240.279 162.44 239.608 162.188C238.521 161.779 237.681 161.001 237.176 160.05C237.175 160.048 237.174 160.046 237.173 160.043C236.58 158.925 236.453 157.567 236.934 156.289C237.827 153.923 240.658 152.228 243.026 153.119C245.395 154.01 247.147 156.636 246.256 159.002V159.001Z" fill="#FFA412"/>
<path opacity="0.5" d="M245.222 159.535C244.655 161.04 243.246 162.085 241.765 162.413C241.021 162.506 240.279 162.44 239.608 162.188C238.521 161.779 237.681 161.001 237.176 160.05C237.175 160.048 237.174 160.046 237.173 160.043C236.822 159.159 236.786 158.146 237.148 157.185C237.921 155.136 240.373 153.668 242.424 154.439C244.476 155.211 245.994 157.484 245.222 159.533V159.535Z" fill="#FFB93E"/>
<path d="M239.032 169.506C239.291 170.718 238.743 171.984 237.857 172.725C237.507 173.016 237.106 173.226 236.68 173.317C235.99 173.465 235.304 173.343 234.733 173.022C234.732 173.022 234.731 173.021 234.73 173.02C234.06 172.642 233.548 171.989 233.374 171.178C233.053 169.676 233.943 167.88 235.447 167.558C236.952 167.238 238.71 168.005 239.032 169.508V169.506Z" fill="#FFA412"/>
<path opacity="0.5" d="M238.678 170.117C238.883 171.073 238.506 172.07 237.857 172.723C237.507 173.015 237.106 173.225 236.68 173.316C235.99 173.464 235.304 173.342 234.733 173.021C234.732 173.021 234.731 173.02 234.73 173.018C234.259 172.681 233.909 172.175 233.778 171.565C233.5 170.264 234.272 168.709 235.574 168.43C236.877 168.152 238.401 168.817 238.679 170.117H238.678Z" fill="#FFB93E"/>
<path d="M252.357 142.455C253.113 143.23 253.297 144.42 252.988 145.378C252.866 145.756 252.666 146.097 252.394 146.362C251.953 146.792 251.39 147.02 250.819 147.048C250.818 147.048 250.817 147.048 250.816 147.048C250.144 147.081 249.463 146.837 248.957 146.319C248.02 145.358 247.842 143.619 248.804 142.682C249.765 141.747 251.422 141.497 252.359 142.457L252.357 142.455Z" fill="#FFA412"/>
<path opacity="0.5" d="M252.381 143.072C252.977 143.683 253.163 144.594 252.988 145.379C252.866 145.757 252.666 146.098 252.394 146.363C251.953 146.793 251.39 147.021 250.819 147.049C250.818 147.049 250.817 147.049 250.816 147.049C250.311 147.019 249.816 146.809 249.436 146.419C248.625 145.587 248.47 144.08 249.303 143.27C250.136 142.459 251.571 142.242 252.381 143.073V143.072Z" fill="#FFB93E"/>
<path d="M221.345 174.69C219.312 174.864 217.353 173.709 216.327 172.114C215.922 171.483 215.663 170.785 215.602 170.072C215.503 168.915 215.842 167.822 216.484 166.958C216.486 166.956 216.486 166.954 216.489 166.952C217.244 165.936 218.415 165.235 219.776 165.119C222.299 164.903 225.05 166.724 225.266 169.244C225.482 171.764 223.866 174.475 221.345 174.692V174.69Z" fill="#FFA412"/>
<path opacity="0.5" d="M220.417 173.989C218.812 174.126 217.261 173.307 216.326 172.115C215.92 171.484 215.662 170.786 215.6 170.073C215.502 168.917 215.84 167.823 216.483 166.959C216.485 166.957 216.485 166.956 216.487 166.953C217.135 166.255 218.035 165.787 219.058 165.698C221.241 165.512 223.625 167.09 223.812 169.27C223.999 171.452 222.6 173.801 220.417 173.989Z" fill="#FFB93E"/>
<path d="M176.47 119.304C169.99 109.524 167.4 88.3862 177.19 81.9122C186.98 75.4382 205.444 86.0798 211.924 95.8601C218.404 105.64 215.72 118.818 205.931 125.292C196.141 131.766 182.95 129.084 176.47 119.304Z" fill="white"/>
<path d="M183.938 113.59C180.32 108.128 181.818 100.768 187.286 97.1514C192.753 93.536 200.121 95.0329 203.741 100.495C207.36 105.959 205.861 113.318 200.393 116.934C194.924 120.549 187.559 119.053 183.938 113.59Z" fill="#F99746"/>
<path d="M165.601 15.8901H163.158V18.334H162.716V13.102H165.96V13.4791H163.158V15.513H165.601V15.8901Z" fill="#99C3FF"/>
<path d="M169.094 18.334C169.07 18.2671 169.051 18.1848 169.038 18.0873C169.025 17.9898 169.016 17.8911 169.011 17.7912C168.947 17.8746 168.87 17.9545 168.781 18.0286C168.692 18.1026 168.593 18.1672 168.482 18.2224C168.371 18.2776 168.25 18.3223 168.119 18.3552C167.987 18.3893 167.843 18.4057 167.69 18.4057C167.501 18.4057 167.329 18.3787 167.174 18.3235C167.02 18.2682 166.887 18.1907 166.779 18.092C166.67 17.9921 166.585 17.8758 166.525 17.7419C166.465 17.6079 166.436 17.461 166.436 17.3036C166.436 17.1144 166.477 16.9441 166.558 16.7913C166.639 16.6398 166.757 16.5093 166.911 16.4036C167.064 16.2967 167.251 16.2156 167.471 16.1592C167.69 16.1028 167.936 16.0746 168.21 16.0746H169.009V15.6328C169.009 15.3555 168.923 15.1358 168.751 14.9772C168.58 14.8174 168.33 14.7387 168.001 14.7387C167.85 14.7387 167.71 14.7586 167.583 14.7998C167.456 14.8409 167.347 14.8973 167.254 14.969C167.161 15.0406 167.089 15.1241 167.038 15.2192C166.986 15.3144 166.96 15.4154 166.96 15.5224L166.528 15.5188C166.528 15.3731 166.565 15.231 166.637 15.0947C166.708 14.9584 166.81 14.8362 166.94 14.7304C167.071 14.6235 167.228 14.5378 167.412 14.4731C167.595 14.4085 167.799 14.3756 168.022 14.3756C168.228 14.3756 168.418 14.4015 168.593 14.4543C168.767 14.5072 168.916 14.5859 169.041 14.6917C169.165 14.7974 169.263 14.929 169.332 15.0865C169.402 15.2451 169.437 15.4295 169.437 15.6399V17.5233C169.437 17.5903 169.439 17.6596 169.444 17.7313C169.449 17.803 169.457 17.8723 169.468 17.9393C169.478 18.0062 169.491 18.0709 169.505 18.132C169.519 18.193 169.536 18.2459 169.556 18.2917V18.3352H169.096L169.094 18.334ZM167.741 18.025C167.896 18.025 168.041 18.0051 168.174 17.9651C168.307 17.9252 168.428 17.8711 168.535 17.8018C168.643 17.7325 168.736 17.6514 168.816 17.5597C168.895 17.4681 168.958 17.3671 169.007 17.2601V16.4048H168.269C168.048 16.4048 167.852 16.4247 167.678 16.4635C167.503 16.5035 167.356 16.5599 167.236 16.6339C167.117 16.7079 167.025 16.7984 166.961 16.9053C166.898 17.0122 166.866 17.1321 166.866 17.266C166.866 17.3718 166.886 17.4704 166.927 17.5621C166.968 17.6549 167.026 17.7348 167.101 17.803C167.176 17.8711 167.268 17.9252 167.376 17.9651C167.485 18.0051 167.606 18.025 167.74 18.025H167.741Z" fill="#99C3FF"/>
<path d="M171.252 13.4509V14.4461H172.057V14.7986H171.252V17.3894C171.252 17.5257 171.266 17.6361 171.293 17.7184C171.32 17.8006 171.358 17.8652 171.405 17.9122C171.452 17.9592 171.506 17.9898 171.567 18.0062C171.628 18.0215 171.692 18.0297 171.76 18.0297C171.828 18.0297 171.887 18.025 171.947 18.0168C172.007 18.0086 172.061 18.0004 172.109 17.9933L172.127 18.3458C172.074 18.3646 172.004 18.3799 171.92 18.3905C171.835 18.401 171.75 18.4069 171.666 18.4069C171.543 18.4069 171.431 18.3905 171.326 18.3587C171.221 18.3258 171.132 18.2706 171.058 18.1919C170.984 18.1132 170.925 18.0086 170.884 17.877C170.841 17.7466 170.821 17.5844 170.821 17.3906V14.7998H170.105V14.4473H170.821V13.4521H171.253L171.252 13.4509Z" fill="#99C3FF"/>
<path d="M175.281 17.3459C175.281 17.2672 175.267 17.1873 175.24 17.1086C175.213 17.0298 175.161 16.9546 175.086 16.8841C175.011 16.8136 174.905 16.7479 174.769 16.6868C174.634 16.6257 174.458 16.5728 174.243 16.527C174.026 16.4811 173.834 16.4283 173.665 16.3683C173.496 16.3084 173.353 16.2356 173.237 16.151C173.121 16.0664 173.032 15.9653 172.972 15.8478C172.912 15.7303 172.883 15.5929 172.883 15.4342C172.883 15.2909 172.915 15.1534 172.978 15.0242C173.042 14.8949 173.134 14.7821 173.251 14.6858C173.37 14.5895 173.513 14.5143 173.683 14.4579C173.852 14.4015 174.041 14.3733 174.253 14.3733C174.479 14.3733 174.68 14.4026 174.859 14.4614C175.038 14.5201 175.188 14.6012 175.312 14.7058C175.435 14.8103 175.529 14.9325 175.594 15.0735C175.659 15.2145 175.692 15.3684 175.692 15.5329H175.26C175.26 15.4319 175.238 15.3344 175.193 15.238C175.148 15.1429 175.084 15.0583 174.999 14.9842C174.914 14.9114 174.808 14.8515 174.682 14.8068C174.557 14.761 174.413 14.7387 174.253 14.7387C174.093 14.7387 173.942 14.7586 173.823 14.7998C173.704 14.8409 173.606 14.8938 173.531 14.9584C173.456 15.023 173.4 15.0959 173.365 15.1758C173.331 15.2557 173.313 15.3367 173.313 15.4178C173.313 15.5036 173.326 15.5823 173.353 15.6528C173.379 15.7233 173.431 15.7891 173.506 15.8502C173.582 15.9113 173.687 15.9677 173.823 16.0194C173.958 16.0711 174.136 16.1216 174.353 16.1721C174.588 16.2273 174.791 16.2884 174.961 16.3554C175.132 16.4224 175.273 16.5023 175.383 16.5939C175.495 16.6868 175.577 16.7913 175.632 16.91C175.686 17.0287 175.713 17.1661 175.713 17.3212C175.713 17.4763 175.679 17.6291 175.612 17.7618C175.545 17.8946 175.448 18.0086 175.323 18.1038C175.199 18.1989 175.047 18.2718 174.871 18.3246C174.693 18.3775 174.495 18.4034 174.277 18.4034C174.03 18.4034 173.811 18.3716 173.622 18.3082C173.432 18.2447 173.272 18.159 173.143 18.0509C173.014 17.9428 172.916 17.8194 172.85 17.6784C172.784 17.5386 172.751 17.3929 172.751 17.2413H173.183C173.192 17.3953 173.232 17.5221 173.302 17.6244C173.371 17.7266 173.458 17.8077 173.56 17.8688C173.664 17.9299 173.778 17.9733 173.904 18.0004C174.03 18.0262 174.154 18.0403 174.277 18.0403C174.44 18.0403 174.584 18.0215 174.708 17.9827C174.833 17.944 174.938 17.8923 175.024 17.8276C175.108 17.763 175.173 17.689 175.216 17.6044C175.26 17.521 175.281 17.4329 175.281 17.3424V17.3459Z" fill="#99C3FF"/>
<path d="M161.064 25.0068H156.624V23.2138H163.427V24.7777L159.189 32.6523H156.841L161.065 25.0068H161.064Z" fill="#99C3FF"/>
<path d="M164.303 31.3972L165.558 29.9003C166.273 30.5477 166.975 30.9249 167.812 30.9249C168.783 30.9249 169.391 30.4526 169.391 29.5901C169.391 28.7806 168.703 28.3094 167.717 28.3094C167.124 28.3094 166.584 28.4716 166.138 28.6596L164.937 27.8641L165.206 23.2125H171.011V25.0325H166.988L166.88 26.6645C167.258 26.5705 167.595 26.5023 168.122 26.5023C169.958 26.5023 171.429 27.3918 171.429 29.549C171.429 31.5441 170.012 32.8119 167.839 32.8119C166.327 32.8119 165.221 32.2726 164.303 31.396V31.3972Z" fill="#99C3FF"/>
<path d="M172.664 26.3978C172.664 25.224 173.483 24.2746 174.694 24.2746C175.906 24.2746 176.701 25.2111 176.701 26.3978C176.701 27.5845 175.882 28.5209 174.671 28.5209C173.459 28.5209 172.664 27.5845 172.664 26.3978ZM179.561 24.3698H180.973L174.908 32.6709H173.496L179.561 24.3698ZM175.454 26.3978C175.454 25.8408 175.146 25.3544 174.671 25.3544C174.172 25.3544 173.911 25.8291 173.911 26.3978C173.911 26.9665 174.219 27.4411 174.694 27.4411C175.193 27.4411 175.454 26.9547 175.454 26.3978ZM177.769 30.6429C177.769 29.4691 178.587 28.5197 179.798 28.5197C181.01 28.5197 181.805 29.4562 181.805 30.6429C181.805 31.8296 180.986 32.766 179.775 32.766C178.564 32.766 177.769 31.8296 177.769 30.6429ZM180.558 30.6429C180.558 30.086 180.25 29.5995 179.775 29.5995C179.276 29.5995 179.015 30.0742 179.015 30.6429C179.015 31.2116 179.323 31.6863 179.798 31.6863C180.297 31.6863 180.558 31.1998 180.558 30.6429Z" fill="#99C3FF"/>
<path d="M106.086 36.681V38.8124H105.644V33.5803H107.428C107.716 33.5803 107.969 33.6191 108.189 33.6954C108.409 33.7718 108.592 33.8799 108.74 34.0174C108.888 34.1548 109.001 34.3193 109.077 34.512C109.152 34.7036 109.19 34.915 109.19 35.1442C109.19 35.3862 109.152 35.6024 109.077 35.7927C109.001 35.9831 108.89 36.144 108.743 36.2756C108.596 36.4072 108.411 36.5083 108.191 36.5776C107.97 36.6469 107.716 36.6822 107.429 36.6822H106.087L106.086 36.681ZM106.086 36.3074H107.428C107.661 36.3074 107.861 36.278 108.029 36.2192C108.197 36.1605 108.333 36.0794 108.439 35.9749C108.545 35.8703 108.623 35.7481 108.673 35.6071C108.724 35.4661 108.748 35.3134 108.748 35.1512C108.748 34.9891 108.724 34.8375 108.673 34.693C108.623 34.5485 108.545 34.4216 108.439 34.3123C108.333 34.203 108.197 34.1172 108.029 34.0538C107.861 33.9904 107.661 33.9586 107.428 33.9586H106.086V36.3085V36.3074Z" fill="#99C3FF"/>
<path d="M111.877 35.2899C111.786 35.2734 111.689 35.2652 111.585 35.2652C111.439 35.2652 111.308 35.2863 111.19 35.3298C111.072 35.3733 110.969 35.4332 110.88 35.5107C110.789 35.5883 110.714 35.6811 110.653 35.788C110.591 35.895 110.543 36.0125 110.507 36.1417V38.8124H110.079V34.9244H110.5L110.507 35.5425C110.613 35.3286 110.755 35.1606 110.936 35.0372C111.117 34.9139 111.339 34.8516 111.603 34.8516C111.656 34.8516 111.71 34.8563 111.765 34.8657C111.82 34.8751 111.86 34.8857 111.888 34.8974L111.877 35.2887V35.2899Z" fill="#99C3FF"/>
<path d="M112.247 36.8102C112.247 36.5271 112.289 36.2662 112.371 36.0266C112.453 35.7869 112.571 35.5801 112.721 35.4062C112.873 35.2323 113.054 35.0972 113.268 34.9985C113.481 34.8998 113.719 34.8516 113.981 34.8516C114.243 34.8516 114.488 34.9009 114.702 34.9985C114.916 35.0972 115.099 35.2323 115.25 35.4062C115.401 35.5801 115.517 35.7869 115.599 36.0266C115.68 36.2662 115.722 36.5271 115.722 36.8102V36.9289C115.722 37.2121 115.68 37.4729 115.599 37.7126C115.518 37.9523 115.402 38.1591 115.25 38.333C115.098 38.5069 114.916 38.642 114.703 38.7395C114.489 38.837 114.251 38.8852 113.987 38.8852C113.722 38.8852 113.485 38.837 113.271 38.7395C113.058 38.642 112.874 38.5069 112.723 38.333C112.571 38.1591 112.453 37.9523 112.37 37.7126C112.287 37.4729 112.246 37.2121 112.246 36.9289V36.8102H112.247ZM112.679 36.9289C112.679 37.1428 112.707 37.3449 112.765 37.5375C112.823 37.7302 112.906 37.8994 113.017 38.044C113.127 38.1885 113.264 38.3048 113.427 38.3906C113.591 38.4763 113.778 38.5198 113.988 38.5198C114.199 38.5198 114.386 38.4763 114.548 38.3906C114.71 38.3048 114.845 38.1885 114.956 38.044C115.067 37.8994 115.15 37.7302 115.208 37.5375C115.265 37.3449 115.294 37.1416 115.294 36.9289V36.8102C115.294 36.6023 115.264 36.4014 115.208 36.2087C115.15 36.016 115.067 35.8468 114.956 35.6999C114.845 35.5542 114.708 35.4367 114.544 35.3498C114.38 35.2628 114.193 35.2182 113.981 35.2182C113.769 35.2182 113.587 35.2617 113.425 35.3498C113.262 35.4367 113.127 35.5542 113.017 35.6999C112.906 35.8456 112.823 36.016 112.765 36.2087C112.707 36.4014 112.679 36.6023 112.679 36.8102V36.9289Z" fill="#99C3FF"/>
<path d="M117.28 33.9281V34.9233H118.086V35.2758H117.28V37.8665C117.28 38.0028 117.294 38.1133 117.321 38.1955C117.348 38.2778 117.386 38.3424 117.433 38.3894C117.48 38.4364 117.534 38.4669 117.595 38.4834C117.656 38.4987 117.72 38.5069 117.788 38.5069C117.856 38.5069 117.915 38.5022 117.975 38.494C118.035 38.4857 118.089 38.4775 118.137 38.4705L118.155 38.823C118.102 38.8418 118.033 38.857 117.948 38.8676C117.863 38.8782 117.779 38.8841 117.694 38.8841C117.572 38.8841 117.459 38.8676 117.354 38.8359C117.249 38.8042 117.16 38.7478 117.086 38.669C117.012 38.5903 116.953 38.4857 116.912 38.3541C116.87 38.2237 116.848 38.0616 116.848 37.8677V35.2769H116.132V34.9244H116.848V33.9293H117.28V33.9281Z" fill="#99C3FF"/>
<path d="M120.486 38.8829C120.232 38.8829 119.998 38.8359 119.785 38.7407C119.572 38.6455 119.388 38.5139 119.234 38.3447C119.078 38.1756 118.958 37.9746 118.872 37.7432C118.787 37.5105 118.743 37.2556 118.743 36.9783V36.8232C118.743 36.5236 118.788 36.2521 118.878 36.0089C118.969 35.7657 119.09 35.5589 119.244 35.3874C119.397 35.2158 119.575 35.0831 119.775 34.9902C119.974 34.8962 120.186 34.8504 120.41 34.8504C120.657 34.8504 120.877 34.8951 121.068 34.9832C121.26 35.0713 121.421 35.1947 121.552 35.3533C121.682 35.5119 121.781 35.6999 121.848 35.9173C121.915 36.1358 121.949 36.3732 121.949 36.6328V36.8948H119.172V36.9771C119.172 37.1898 119.205 37.3907 119.27 37.5787C119.335 37.7667 119.426 37.93 119.544 38.0698C119.662 38.2084 119.802 38.3189 119.965 38.3988C120.129 38.4787 120.31 38.5186 120.508 38.5186C120.739 38.5186 120.941 38.4763 121.118 38.3929C121.294 38.3095 121.454 38.1744 121.598 37.9899L121.867 38.1944C121.802 38.2883 121.727 38.3765 121.642 38.4599C121.558 38.5433 121.458 38.6173 121.346 38.6796C121.233 38.7419 121.106 38.7912 120.965 38.8265C120.824 38.8629 120.665 38.8805 120.49 38.8805L120.486 38.8829ZM120.407 35.217C120.244 35.217 120.093 35.2487 119.954 35.311C119.816 35.3733 119.692 35.4626 119.586 35.5765C119.479 35.6917 119.392 35.8303 119.324 35.9913C119.256 36.1534 119.21 36.332 119.185 36.5283H121.52V36.4813C121.515 36.3179 121.488 36.1605 121.441 36.0089C121.393 35.8574 121.323 35.7222 121.231 35.6047C121.139 35.4872 121.024 35.3933 120.887 35.3228C120.751 35.2523 120.591 35.217 120.408 35.217H120.407Z" fill="#99C3FF"/>
<path d="M122.76 33.7988C122.76 33.7178 122.785 33.6484 122.838 33.592C122.891 33.5356 122.963 33.5074 123.054 33.5074C123.144 33.5074 123.217 33.5356 123.271 33.592C123.325 33.6484 123.352 33.7178 123.352 33.7988C123.352 33.8799 123.325 33.9481 123.271 34.0033C123.217 34.0585 123.144 34.0855 123.054 34.0855C122.963 34.0855 122.89 34.0585 122.838 34.0033C122.785 33.9481 122.76 33.8799 122.76 33.7988ZM123.266 38.8124H122.835V34.9244H123.266V38.8124Z" fill="#99C3FF"/>
<path d="M124.846 34.9233L124.86 35.5883C124.927 35.4778 125.005 35.378 125.092 35.2863C125.179 35.1959 125.278 35.1171 125.385 35.0525C125.493 34.9879 125.609 34.9385 125.734 34.9033C125.859 34.868 125.99 34.8516 126.129 34.8516C126.323 34.8516 126.497 34.8774 126.651 34.9303C126.805 34.9832 126.935 35.0666 127.042 35.1818C127.149 35.2969 127.23 35.4449 127.286 35.6259C127.343 35.8068 127.371 36.0254 127.371 36.2815V38.8112H126.943V36.278C126.943 36.0771 126.922 35.9091 126.878 35.7751C126.835 35.6412 126.774 35.5331 126.695 35.452C126.616 35.3709 126.519 35.3122 126.405 35.2781C126.291 35.2429 126.165 35.2264 126.026 35.2264C125.873 35.2264 125.733 35.2523 125.608 35.304C125.483 35.3557 125.373 35.4238 125.278 35.5107C125.181 35.5965 125.099 35.6964 125.029 35.8068C124.96 35.9185 124.905 36.0324 124.864 36.1499V38.8124H124.435V34.9244H124.846V34.9233Z" fill="#99C3FF"/>
<path d="M102.786 52.2573L105.978 49.643C107.169 48.6572 107.636 48.1379 107.636 47.3436C107.636 46.5493 107.102 46.0982 106.348 46.0982C105.594 46.0982 105.101 46.5094 104.389 47.3847L102.909 46.1933C103.855 44.9068 104.772 44.2088 106.486 44.2088C108.472 44.2088 109.788 45.372 109.788 47.1932C109.788 48.7947 108.966 49.589 107.267 50.9026L105.705 52.1069H109.883V53.9281H102.786V52.2585V52.2573Z" fill="#99C3FF"/>
<path d="M111.39 49.1367C111.39 46.358 113.117 44.1819 115.665 44.1819C118.214 44.1819 119.912 46.3309 119.912 49.1367C119.912 51.9425 118.2 54.0915 115.637 54.0915C113.074 54.0915 111.39 51.9425 111.39 49.1367ZM117.748 49.1367C117.748 47.3978 116.899 46.0842 115.638 46.0842C114.377 46.0842 113.555 47.3567 113.555 49.1367C113.555 50.9168 114.391 52.1893 115.665 52.1893C116.939 52.1893 117.748 50.9027 117.748 49.1367Z" fill="#99C3FF"/>
<path d="M121.088 47.6763C121.088 46.5025 121.907 45.5531 123.118 45.5531C124.33 45.5531 125.125 46.4896 125.125 47.6763C125.125 48.863 124.306 49.7994 123.095 49.7994C121.883 49.7994 121.088 48.863 121.088 47.6763ZM127.985 45.6483H129.397L123.332 53.9494H121.92L127.985 45.6483ZM123.878 47.6763C123.878 47.1193 123.57 46.6329 123.095 46.6329C122.596 46.6329 122.335 47.1076 122.335 47.6763C122.335 48.2449 122.643 48.7196 123.118 48.7196C123.617 48.7196 123.878 48.2332 123.878 47.6763ZM126.193 51.9214C126.193 50.7476 127.011 49.7982 128.223 49.7982C129.434 49.7982 130.229 50.7347 130.229 51.9214C130.229 53.1081 129.41 54.0445 128.199 54.0445C126.988 54.0445 126.193 53.1081 126.193 51.9214ZM128.982 51.9214C128.982 51.3645 128.674 50.878 128.199 50.878C127.7 50.878 127.439 51.3527 127.439 51.9214C127.439 52.4901 127.747 52.9647 128.223 52.9647C128.721 52.9647 128.982 52.4783 128.982 51.9214Z" fill="#99C3FF"/>
<path d="M213.019 72.9907C212.99 73.2563 212.927 73.4948 212.832 73.7063C212.735 73.9178 212.607 74.0964 212.445 74.2421C212.283 74.3878 212.089 74.5006 211.862 74.5781C211.635 74.6557 211.378 74.6944 211.09 74.6944C210.802 74.6944 210.523 74.638 210.281 74.5252C210.039 74.4124 209.832 74.2526 209.659 74.0459C209.486 73.8391 209.353 73.59 209.26 73.2998C209.167 73.0095 209.12 72.6888 209.12 72.3363V71.6783C209.12 71.3258 209.167 71.0051 209.26 70.7137C209.353 70.4223 209.487 70.1744 209.661 69.9676C209.835 69.762 210.046 69.601 210.293 69.4882C210.54 69.3742 210.817 69.3178 211.124 69.3178C211.403 69.3178 211.653 69.3566 211.876 69.433C212.099 69.5093 212.29 69.6221 212.45 69.769C212.61 69.9159 212.738 70.0956 212.834 70.3083C212.932 70.5198 212.993 70.7607 213.02 71.0286H212.574C212.548 70.8182 212.5 70.6291 212.431 70.4622C212.361 70.2954 212.267 70.1556 212.149 70.0439C212.03 69.9312 211.886 69.8454 211.717 69.7855C211.548 69.7255 211.35 69.695 211.125 69.695C210.881 69.695 210.662 69.742 210.47 69.8372C210.279 69.9323 210.115 70.0651 209.981 70.2378C209.847 70.4105 209.745 70.6185 209.673 70.8617C209.602 71.1049 209.567 71.3752 209.567 71.6724V72.3375C209.567 72.6253 209.601 72.8909 209.668 73.1329C209.735 73.3761 209.834 73.5853 209.963 73.7615C210.093 73.9378 210.253 74.0752 210.442 74.1728C210.631 74.2714 210.849 74.3196 211.094 74.3196C211.557 74.3196 211.905 74.2092 212.14 73.9871C212.376 73.765 212.52 73.4325 212.576 72.9896H213.021L213.019 72.9907Z" fill="#99C3FF"/>
<path d="M216.451 74.6228C216.427 74.5558 216.408 74.4735 216.396 74.3772C216.383 74.2797 216.373 74.181 216.368 74.0811C216.304 74.1645 216.227 74.2444 216.138 74.3184C216.05 74.3925 215.95 74.4571 215.839 74.5123C215.729 74.5675 215.608 74.6122 215.476 74.6451C215.344 74.678 215.201 74.6956 215.048 74.6956C214.858 74.6956 214.687 74.6674 214.531 74.6134C214.377 74.5581 214.244 74.4806 214.136 74.3819C214.027 74.282 213.942 74.1657 213.882 74.0318C213.822 73.8978 213.793 73.7509 213.793 73.5935C213.793 73.4043 213.834 73.234 213.915 73.0812C213.996 72.9296 214.114 72.7992 214.268 72.6935C214.422 72.5877 214.608 72.5055 214.828 72.4491C215.048 72.3927 215.294 72.3645 215.568 72.3645H216.366V71.9227C216.366 71.6442 216.28 71.4257 216.109 71.2671C215.937 71.1073 215.688 71.0286 215.358 71.0286C215.208 71.0286 215.068 71.0485 214.941 71.0897C214.814 71.1308 214.704 71.1872 214.611 71.2588C214.518 71.3305 214.447 71.4139 214.396 71.5091C214.344 71.6043 214.319 71.7053 214.319 71.8123L213.887 71.8087C213.887 71.663 213.923 71.5209 213.995 71.3846C214.067 71.2483 214.168 71.1261 214.299 71.0203C214.429 70.9134 214.587 70.8276 214.77 70.763C214.954 70.6984 215.157 70.6655 215.379 70.6655C215.585 70.6655 215.776 70.6913 215.95 70.7442C216.124 70.7971 216.273 70.8758 216.398 70.9816C216.523 71.0873 216.62 71.2189 216.69 71.3763C216.759 71.535 216.794 71.7194 216.794 71.9298V73.8132C216.794 73.8802 216.797 73.9495 216.801 74.0212C216.806 74.0928 216.814 74.1622 216.825 74.2291C216.835 74.2961 216.848 74.3607 216.862 74.4218C216.877 74.4829 216.893 74.5358 216.913 74.5816V74.6251H216.453L216.451 74.6228ZM215.098 74.3137C215.254 74.3137 215.398 74.2938 215.531 74.255C215.664 74.215 215.785 74.161 215.892 74.0917C216 74.0224 216.093 73.9413 216.173 73.8496C216.252 73.7568 216.316 73.6569 216.364 73.55V72.6947H215.626C215.405 72.6947 215.209 72.7146 215.035 72.7534C214.861 72.7933 214.714 72.8497 214.594 72.9238C214.474 72.9978 214.382 73.0883 214.319 73.1952C214.255 73.3021 214.223 73.422 214.223 73.5559C214.223 73.6616 214.243 73.7603 214.284 73.852C214.326 73.9448 214.383 74.0247 214.458 74.0928C214.534 74.161 214.625 74.215 214.734 74.255C214.842 74.2949 214.963 74.3137 215.097 74.3137H215.098Z" fill="#99C3FF"/>
<path d="M219.739 71.1002C219.649 71.0838 219.551 71.0756 219.448 71.0756C219.302 71.0756 219.17 71.0967 219.052 71.1402C218.935 71.1836 218.831 71.2436 218.742 71.3211C218.651 71.3987 218.576 71.4915 218.515 71.5972C218.454 71.7042 218.405 71.8217 218.369 71.9509V74.6216H217.941V70.7336H218.362L218.369 71.3517C218.475 71.1378 218.617 70.9698 218.798 70.8464C218.979 70.7231 219.202 70.6608 219.465 70.6608C219.518 70.6608 219.572 70.6655 219.627 70.6749C219.683 70.6843 219.723 70.6949 219.75 70.7066L219.739 71.0979V71.1002Z" fill="#99C3FF"/>
<path d="M223.552 72.7181C223.552 73.0107 223.519 73.2774 223.453 73.5195C223.387 73.7615 223.291 73.9695 223.164 74.1434C223.037 74.3173 222.881 74.4524 222.696 74.5499C222.511 74.6462 222.302 74.6956 222.067 74.6956C221.781 74.6956 221.537 74.6415 221.335 74.5334C221.133 74.4254 220.967 74.2785 220.837 74.0917L220.819 74.6239H220.415V69.104H220.844V71.3C220.973 71.0991 221.138 70.9428 221.336 70.8312C221.535 70.7195 221.776 70.6643 222.06 70.6643C222.297 70.6643 222.508 70.7113 222.692 70.8041C222.877 70.897 223.033 71.0309 223.162 71.2024C223.29 71.3752 223.387 71.5831 223.453 71.8263C223.519 72.0696 223.552 72.3422 223.552 72.6441V72.7193V72.7181ZM223.121 72.6429C223.121 72.4174 223.099 72.207 223.056 72.0108C223.012 71.8146 222.945 71.6442 222.852 71.5009C222.759 71.3575 222.642 71.2436 222.498 71.1613C222.355 71.0791 222.182 71.0368 221.981 71.0368C221.817 71.0368 221.674 71.0591 221.549 71.1037C221.425 71.1484 221.316 71.2071 221.226 71.2812C221.134 71.3552 221.058 71.441 220.995 71.5361C220.933 71.6325 220.882 71.7312 220.845 71.8346V73.5888C220.891 73.6922 220.947 73.7885 221.015 73.8778C221.083 73.9683 221.165 74.0458 221.259 74.1116C221.352 74.1774 221.46 74.2291 221.581 74.2656C221.702 74.3032 221.839 74.3208 221.989 74.3208C222.183 74.3208 222.351 74.2797 222.495 74.1986C222.637 74.1175 222.756 74.0047 222.849 73.8614C222.942 73.718 223.011 73.5477 223.056 73.3526C223.101 73.1576 223.123 72.9461 223.123 72.7181V72.6429H223.121Z" fill="#99C3FF"/>
<path d="M226.832 73.6346C226.832 73.5559 226.818 73.476 226.791 73.3973C226.764 73.3185 226.712 73.2434 226.636 73.1729C226.561 73.1024 226.455 73.0366 226.32 72.9755C226.184 72.9144 226.008 72.8615 225.793 72.8157C225.577 72.7698 225.385 72.717 225.215 72.657C225.046 72.5971 224.903 72.5243 224.787 72.4397C224.671 72.3551 224.582 72.2529 224.522 72.1365C224.462 72.019 224.433 71.8816 224.433 71.723C224.433 71.5796 224.465 71.4421 224.528 71.3129C224.592 71.1837 224.682 71.0709 224.801 70.9745C224.92 70.8782 225.063 70.803 225.233 70.7466C225.402 70.6902 225.592 70.662 225.803 70.662C226.029 70.662 226.23 70.6913 226.409 70.7501C226.588 70.8088 226.738 70.8899 226.862 70.9945C226.985 71.0991 227.079 71.2212 227.144 71.3634C227.209 71.5044 227.242 71.6583 227.242 71.8228H226.81C226.81 71.7218 226.788 71.6243 226.743 71.5279C226.698 71.4316 226.634 71.3481 226.549 71.2741C226.464 71.2013 226.358 71.1413 226.232 71.0967C226.107 71.0509 225.963 71.0286 225.803 71.0286C225.643 71.0286 225.492 71.0485 225.373 71.0897C225.254 71.1308 225.156 71.1837 225.081 71.2483C225.006 71.3129 224.951 71.3857 224.915 71.4656C224.88 71.5455 224.864 71.6266 224.864 71.7077C224.864 71.7935 224.876 71.8722 224.903 71.9427C224.929 72.0132 224.981 72.079 225.056 72.1401C225.132 72.2012 225.238 72.2576 225.373 72.3093C225.508 72.361 225.686 72.4115 225.903 72.462C226.138 72.5172 226.341 72.5783 226.511 72.6453C226.682 72.7123 226.823 72.7922 226.933 72.8838C227.045 72.9766 227.128 73.0812 227.182 73.1999C227.236 73.3185 227.263 73.456 227.263 73.6111C227.263 73.7662 227.229 73.919 227.162 74.0517C227.095 74.1845 226.998 74.2985 226.873 74.3936C226.749 74.4888 226.598 74.5617 226.421 74.6145C226.243 74.6674 226.045 74.6933 225.827 74.6933C225.58 74.6933 225.361 74.6615 225.172 74.5981C224.982 74.5346 224.822 74.4489 224.693 74.3408C224.564 74.2327 224.466 74.1093 224.4 73.9683C224.334 73.8285 224.301 73.6828 224.301 73.5312H224.733C224.742 73.6851 224.782 73.812 224.852 73.9143C224.921 74.0165 225.008 74.0975 225.11 74.1586C225.214 74.2197 225.328 74.2632 225.454 74.2902C225.58 74.3173 225.704 74.3302 225.827 74.3302C225.99 74.3302 226.134 74.3114 226.258 74.2726C226.383 74.2338 226.488 74.1821 226.574 74.1175C226.658 74.0529 226.723 73.9789 226.766 73.8943C226.81 73.8109 226.831 73.7227 226.831 73.6323L226.832 73.6346Z" fill="#99C3FF"/>
<path d="M209.222 86.9469L210.555 85.3583C211.315 86.0457 212.059 86.4464 212.948 86.4464C213.98 86.4464 214.624 85.9446 214.624 85.0294C214.624 84.1705 213.894 83.6699 212.847 83.6699C212.217 83.6699 211.644 83.8415 211.171 84.0424L209.896 83.1976L210.183 78.2592H216.345V80.1921H212.074L211.96 81.9239C212.361 81.8241 212.72 81.7524 213.279 81.7524C215.228 81.7524 216.79 82.6971 216.79 84.9882C216.79 87.1067 215.285 88.4532 212.978 88.4532C211.372 88.4532 210.199 87.881 209.224 86.9504L209.222 86.9469Z" fill="#99C3FF"/>
<path d="M218.022 82.0356C218.022 80.8618 218.841 79.9124 220.052 79.9124C221.263 79.9124 222.059 80.8489 222.059 82.0356C222.059 83.2223 221.24 84.1587 220.029 84.1587C218.817 84.1587 218.022 83.2223 218.022 82.0356ZM224.919 80.0076H226.331L220.265 88.3087H218.852L224.919 80.0076ZM220.812 82.0356C220.812 81.4786 220.504 80.9922 220.029 80.9922C219.53 80.9922 219.269 81.4669 219.269 82.0356C219.269 82.6042 219.577 83.0789 220.052 83.0789C220.551 83.0789 220.812 82.5925 220.812 82.0356ZM223.126 86.2807C223.126 85.1069 223.945 84.1575 225.156 84.1575C226.368 84.1575 227.163 85.094 227.163 86.2807C227.163 87.4674 226.344 88.4038 225.133 88.4038C223.921 88.4038 223.126 87.4674 223.126 86.2807ZM225.916 86.2807C225.916 85.7238 225.608 85.2373 225.133 85.2373C224.634 85.2373 224.373 85.712 224.373 86.2807C224.373 86.8494 224.681 87.324 225.156 87.324C225.655 87.324 225.916 86.8376 225.916 86.2807Z" fill="#99C3FF"/>
<path d="M284.356 105.499C281.28 112.649 276.018 120.901 268.814 123.429C268.281 123.616 267.715 123.694 267.153 123.636C266.129 123.532 265.156 123.21 264.473 122.702C263.533 122.009 263.131 120.967 263.859 119.657C267.71 112.727 267.275 105.458 263.152 104.239C260.177 103.359 255.285 109.092 255.187 116.761C255.165 118.534 253.866 119.44 252.191 119.319C251.158 119.243 249.982 118.776 248.875 117.881C248.774 117.8 248.687 117.703 248.616 117.594C244.648 111.585 244.075 101.989 244.548 94.0225C245.15 83.9002 253.417 72.6758 265.709 72.6653C267.586 72.6641 270.503 72.3762 271.817 72.7381C272.983 73.0589 275.486 74.799 277.075 75.6837C288.759 82.1848 288.287 96.3653 284.356 105.499Z" fill="#2E3552"/>
<path d="M285.853 94.234C285.853 94.2868 285.853 94.3409 285.852 94.3914C285.844 98.3475 284.906 102.294 283.48 105.609C283.147 106.383 282.786 107.168 282.399 107.96C282.399 107.96 282.398 107.961 282.398 107.962C282.355 108.056 282.307 108.15 282.261 108.247C281.093 110.603 279.695 112.987 278.072 115.147V115.149C278.001 115.243 277.931 115.335 277.859 115.428C277.277 116.188 276.665 116.92 276.026 117.609C275.876 117.771 275.727 117.928 275.574 118.084V118.087C273.516 120.204 271.185 121.897 268.59 122.818C268.044 123.012 267.462 123.09 266.887 123.025C265.926 122.917 265.019 122.612 264.379 122.135C263.475 121.468 263.088 120.467 263.788 119.208C267.488 112.55 267.069 105.568 263.108 104.395C260.25 103.548 255.549 109.058 255.457 116.427C255.435 118.129 254.188 119 252.576 118.883C251.82 118.827 250.984 118.553 250.158 118.046C249.577 117.688 249.1 117.186 248.75 116.6C247.595 114.665 246.77 112.393 246.203 109.945C246.478 110.524 246.974 111.485 247.65 112.415C248.667 113.816 249.759 114.686 250.859 114.99C251.292 115.109 251.725 115.141 252.158 115.082C253.411 114.917 254.583 113.742 255.638 111.59C256.415 110.005 256.837 108.447 256.841 108.434L256.616 108.372C256.599 108.433 254.943 114.476 252.125 114.851C248.621 115.315 246.204 109.377 246.179 109.316L246.074 109.359C245.874 108.431 245.71 107.484 245.578 106.519C245.568 106.444 245.556 106.374 245.547 106.295C245.547 106.295 245.547 106.294 245.548 106.291C245.2 103.677 245.079 100.97 245.103 98.3404V98.3381C245.103 98.2876 245.106 98.2347 245.106 98.1842C245.119 96.9575 245.167 95.7497 245.234 94.5782C245.465 90.7044 246.85 86.7272 249.176 83.3515V83.3491C249.208 83.3057 249.237 83.2646 249.269 83.2199C251.096 80.6103 253.488 78.3708 256.35 76.827C256.427 76.7835 256.509 76.7424 256.589 76.7001C257.402 76.2771 258.253 75.9081 259.14 75.6015C259.249 75.5639 259.362 75.5275 259.475 75.4922C259.807 75.3818 260.145 75.2866 260.484 75.1961H260.487C263.656 74.3666 267.229 74.3372 271.111 75.4076C275.453 76.6049 278.666 78.5694 280.959 80.9957C280.962 80.9957 280.962 80.9981 280.963 80.9981C281.262 81.3141 281.546 81.6396 281.813 81.9697C281.876 82.0449 281.936 82.1201 281.994 82.1965C282.545 82.8956 283.027 83.6276 283.448 84.3831C283.476 84.4325 283.502 84.4783 283.528 84.5265C285.157 87.5108 285.843 90.8724 285.854 94.2293L285.853 94.234Z" fill="#F99746"/>
<path d="M264.474 122.702C263.418 122.085 262.759 120.358 263.585 118.934C267.406 112.345 267.048 105.855 263.086 104.684C260.228 103.838 255.55 109.061 255.455 116.429C255.434 118.133 254.275 119.686 251.685 119.251L252.57 118.881C252.57 118.881 254.072 118.661 254.517 117.079C254.909 115.688 255.301 101.176 263.32 103.202C271.064 105.16 266.72 114.624 265.756 116.358C264.791 118.093 263.816 120.725 264.474 122.701V122.702Z" fill="#EFEFEF"/>
<g opacity="0.5">
<path d="M264.315 95.5241L264.083 95.4923C264.093 95.4124 265.169 87.3793 263.008 83.6734C260.639 79.6116 257.391 77.4509 256.349 76.8317C256.427 76.787 256.508 76.7471 256.588 76.7036C257.761 77.4203 260.902 79.5963 263.211 83.5571C264.136 85.1433 264.603 87.6425 264.599 90.9817C264.596 93.4608 264.319 95.5029 264.315 95.5241Z" fill="white"/>
</g>
<g opacity="0.5">
<path d="M283.528 84.5312L283.495 84.6428L283.33 84.597C273.767 81.9604 268.012 95.7344 267.956 95.8742L267.739 95.7849C267.753 95.7497 269.229 92.1813 271.896 89.0183C275.395 84.8649 279.368 83.2622 283.395 84.3726L283.449 84.3878C283.477 84.4372 283.503 84.483 283.529 84.5312H283.528Z" fill="white"/>
</g>
<g opacity="0.5">
<path d="M263.324 95.2315L263.091 95.2397C263.087 95.154 262.739 86.7695 258.894 84.6475C255.028 82.5126 249.254 83.4619 249.197 83.4702L249.176 83.355V83.3527C249.209 83.308 249.237 83.2669 249.269 83.2223C250.102 83.1001 255.374 82.4327 259.011 84.4407C260.679 85.3607 261.911 87.4603 262.674 90.6797C263.242 93.0614 263.324 95.208 263.325 95.2303L263.324 95.2315Z" fill="white"/>
</g>
<g opacity="0.5">
<path d="M285.852 94.3914L285.776 94.4772C283.541 92.4281 281.008 91.4975 278.243 91.7031C272.854 92.1061 268.462 96.6732 268.426 96.7178L268.235 96.5827C268.264 96.5392 272.444 92.1484 277.757 91.5151C280.741 91.1591 283.462 92.0744 285.856 94.2352C285.856 94.288 285.856 94.3421 285.853 94.3926L285.852 94.3914Z" fill="white"/>
</g>
<g opacity="0.5">
<path d="M262.038 97.0033C259.678 94.7886 256.403 94.4267 253.772 94.1364C251.599 93.8956 249.881 93.7064 249.423 92.5573C248.901 91.246 249.321 89.5365 250.445 88.3991C251.277 87.5579 253.185 86.3441 256.653 87.6695C262.318 89.8385 262.592 96.0164 262.594 96.0786L262.36 96.0869C262.358 96.0258 262.087 90.0006 256.569 87.888C253.229 86.6097 251.404 87.7623 250.612 88.5636C249.568 89.6199 249.16 91.2637 249.641 92.4715C250.046 93.4902 251.701 93.6723 253.798 93.905C256.464 94.1987 259.781 94.5653 262.198 96.8342L262.038 97.0045V97.0033Z" fill="white"/>
</g>
<g opacity="0.5">
<path d="M278.955 101.763C278.21 101.557 277.357 101.154 276.403 100.704C274.143 99.6364 271.329 98.3075 268.156 98.7716L268.122 98.5402C271.365 98.0655 274.214 99.4108 276.503 100.493C278.346 101.364 279.803 102.052 280.736 101.436C281.73 100.781 282.626 99.5048 282.39 98.1313C282.212 97.1032 281.329 95.7156 278.153 94.9272C272.413 93.5078 268.538 98.0737 268.5 98.1195L268.32 97.9703C268.359 97.9233 272.324 93.2446 278.21 94.6992C281.513 95.5205 282.432 96.9939 282.621 98.0913C282.876 99.5683 281.924 100.934 280.866 101.63C280.344 101.975 279.704 101.968 278.956 101.762L278.955 101.763Z" fill="white"/>
</g>
<g opacity="0.5">
<path d="M262.46 97.9962L262.369 98.2136C262.252 98.1619 250.764 93.3645 245.18 98.4286L245.101 98.344V98.3416C245.101 98.2911 245.103 98.2382 245.103 98.1865C250.825 93.133 262.343 97.9468 262.46 97.9962Z" fill="white"/>
</g>
<g opacity="0.5">
<path d="M262.366 98.9796C262.24 98.962 249.603 97.2266 245.684 106.567L245.577 106.524C245.567 106.449 245.555 106.377 245.544 106.3C245.544 106.3 245.544 106.298 245.544 106.295C249.621 96.9916 262.269 98.7305 262.399 98.7493L262.365 98.9796H262.366Z" fill="white"/>
</g>
<g opacity="0.5">
<path d="M251.546 109.747C251.11 109.627 250.727 109.285 250.488 108.787C250.012 107.804 250.03 106.052 251.501 104.084C254.58 99.963 262.845 100.001 262.928 100.002L262.926 100.236C262.844 100.236 254.698 100.198 251.689 104.223C250.281 106.108 250.255 107.765 250.699 108.686C250.96 109.226 251.385 109.545 251.865 109.56C252.453 109.578 253.026 109.144 253.476 108.339C255.26 105.156 260.103 100.719 263.941 100.723V100.957C260.189 100.952 255.437 105.32 253.681 108.453C253.184 109.338 252.537 109.814 251.858 109.793C251.752 109.789 251.648 109.774 251.547 109.746L251.546 109.747Z" fill="white"/>
</g>
<g opacity="0.5">
<path d="M281.994 82.2012L281.938 82.3023C279.959 81.1825 277.539 82.5807 274.978 84.0635C274.501 84.3397 274.007 84.6252 273.522 84.8907C272.047 85.6967 270.597 85.9294 269.305 85.5734C269.207 85.5463 269.108 85.5146 269.011 85.4805C267.444 84.9271 266.185 83.5254 265.274 81.3106C263.843 77.8527 260.53 76.1749 259.143 75.6062C259.252 75.5686 259.365 75.5322 259.478 75.4981C261.014 76.1666 264.109 77.8821 265.488 81.2225C266.377 83.3727 267.588 84.7321 269.09 85.2608C270.391 85.7191 271.883 85.5217 273.412 84.6874C273.896 84.4231 274.386 84.1387 274.864 83.8626C277.388 82.4033 279.774 81.0204 281.818 81.9756C281.88 82.0508 281.939 82.1249 281.998 82.2024L281.994 82.2012Z" fill="white"/>
</g>
<g opacity="0.5">
<path d="M282.398 107.96C282.398 107.96 282.4 107.96 282.398 107.962C282.354 108.057 282.307 108.15 282.261 108.247C279.707 101.409 267.888 99.7175 267.766 99.701L267.799 99.4672C267.919 99.4837 279.639 101.16 282.398 107.96Z" fill="white"/>
</g>
<g opacity="0.5">
<path d="M278.071 115.148V115.151C278 115.246 277.929 115.337 277.858 115.429L277.802 115.421C279.229 105.393 267.492 100.41 267.373 100.359L267.463 100.144C267.581 100.193 279.252 105.143 278.071 115.148Z" fill="white"/>
</g>
<g opacity="0.5">
<path d="M271.135 115.146C271.034 115.118 270.937 115.079 270.845 115.027C270.251 114.697 269.939 113.957 269.967 112.943C270.069 109.353 268.23 103.17 265.007 101.251L265.127 101.05C268.423 103.012 270.304 109.303 270.201 112.949C270.176 113.871 270.445 114.536 270.959 114.822C271.38 115.054 271.907 114.999 272.408 114.668C273.263 114.105 274.09 112.669 273.849 110.33C273.332 105.333 266.319 101.191 266.249 101.15L266.366 100.948C266.438 100.99 273.552 105.19 274.081 110.306C274.334 112.75 273.449 114.263 272.537 114.864C272.075 115.168 271.572 115.266 271.136 115.146H271.135Z" fill="white"/>
</g>
<g opacity="0.5">
<path d="M276.024 117.61C275.875 117.772 275.724 117.929 275.573 118.087V118.089C275.036 118.447 274.139 118.999 273.112 119.438C271.52 120.118 270.136 120.307 269.032 120.003C268.602 119.884 268.214 119.691 267.874 119.419C266.88 118.633 266.48 117.025 266.675 114.638C266.824 112.881 267.26 111.326 267.265 111.312L267.491 111.374C267.472 111.434 265.795 117.471 268.02 119.237C270.788 121.433 275.91 117.57 275.963 117.531L276.026 117.611L276.024 117.61Z" fill="white"/>
</g>
<path d="M280.961 80.9992C279.075 79.4177 275.075 78.8173 272.817 80.4071C271.228 81.5256 266.707 95.0165 266.707 95.0165L265.439 94.6663C265.439 94.6663 269.003 81.6889 266.79 78.5036C265.242 76.2771 260.639 75.2208 260.488 75.2008C263.659 74.3701 267.231 74.3419 271.112 75.4111C275.455 76.6084 278.666 78.5718 280.962 80.9992H280.961Z" fill="#FCCBA2"/>
<path d="M261.268 97.5885C261.853 95.4688 264.048 94.2234 266.171 94.8085C268.293 95.3936 269.539 97.5861 268.954 99.7069C268.368 101.827 266.173 103.071 264.05 102.487C261.929 101.902 260.683 99.7093 261.268 97.5885Z" fill="white"/>
<path d="M262.157 97.834C262.607 96.2044 264.294 95.248 265.925 95.698C267.556 96.148 268.514 97.8329 268.064 99.4625C267.614 101.092 265.927 102.049 264.296 101.599C262.665 101.149 261.708 99.4637 262.157 97.834Z" fill="#EFEFEF"/>
<path d="M255.333 159.183H274.058C274.712 159.183 275.243 159.714 275.243 160.368V177.879C275.243 178.54 274.707 179.075 274.046 179.075H255.332V159.184L255.333 159.183Z" fill="#EBF3FA"/>
<path d="M244.3 159.183H261.683C262.324 159.183 262.844 159.703 262.844 160.343V177.997C262.844 178.591 262.36 179.075 261.764 179.075H244.185C243.493 179.075 242.932 178.515 242.932 177.824V160.55C242.932 159.795 243.545 159.183 244.3 159.183Z" fill="white"/>
<path d="M249.563 164.85C249.563 164.757 249.548 164.674 249.517 164.602C249.487 164.531 249.436 164.465 249.363 164.405C249.291 164.345 249.196 164.291 249.077 164.24C248.96 164.191 248.812 164.142 248.635 164.091C248.465 164.043 248.311 163.991 248.174 163.934C248.038 163.877 247.921 163.81 247.826 163.735C247.731 163.659 247.657 163.572 247.605 163.472C247.553 163.372 247.527 163.257 247.527 163.123C247.527 162.989 247.555 162.874 247.611 162.767C247.666 162.66 247.745 162.568 247.846 162.491C247.947 162.414 248.067 162.354 248.207 162.312C248.347 162.27 248.5 162.249 248.666 162.249C248.844 162.249 249.006 162.275 249.149 162.327C249.293 162.38 249.415 162.452 249.516 162.544C249.617 162.635 249.695 162.742 249.749 162.864C249.803 162.987 249.83 163.118 249.83 163.26H249.542C249.542 163.15 249.522 163.049 249.484 162.955C249.445 162.861 249.389 162.78 249.314 162.712C249.24 162.644 249.148 162.589 249.039 162.551C248.93 162.512 248.806 162.492 248.666 162.492C248.526 162.492 248.403 162.508 248.296 162.542C248.191 162.575 248.101 162.621 248.031 162.678C247.96 162.734 247.906 162.801 247.869 162.876C247.833 162.953 247.814 163.032 247.814 163.118C247.814 163.199 247.829 163.273 247.86 163.341C247.891 163.41 247.941 163.473 248.013 163.531C248.085 163.589 248.179 163.643 248.295 163.694C248.412 163.744 248.555 163.791 248.726 163.837C248.904 163.887 249.063 163.941 249.203 164.001C249.343 164.059 249.461 164.129 249.557 164.209C249.654 164.288 249.727 164.38 249.776 164.485C249.825 164.588 249.85 164.709 249.85 164.845C249.85 164.982 249.821 165.107 249.763 165.217C249.704 165.326 249.624 165.419 249.521 165.495C249.417 165.572 249.294 165.629 249.151 165.669C249.009 165.709 248.853 165.729 248.686 165.729C248.585 165.729 248.483 165.721 248.381 165.703C248.28 165.685 248.181 165.66 248.088 165.626C247.994 165.59 247.906 165.546 247.825 165.492C247.744 165.438 247.673 165.373 247.613 165.298C247.553 165.223 247.506 165.137 247.471 165.039C247.435 164.942 247.418 164.834 247.418 164.715H247.705C247.705 164.857 247.734 164.978 247.793 165.077C247.852 165.176 247.928 165.254 248.021 165.315C248.114 165.375 248.219 165.42 248.335 165.447C248.452 165.474 248.568 165.488 248.685 165.488C248.816 165.488 248.936 165.473 249.044 165.442C249.153 165.412 249.244 165.369 249.322 165.313C249.398 165.257 249.457 165.19 249.498 165.112C249.54 165.033 249.561 164.946 249.561 164.85H249.563Z" fill="#699DEE"/>
<path d="M252.025 165.365C251.946 165.48 251.84 165.569 251.709 165.634C251.578 165.698 251.415 165.73 251.221 165.73C251.097 165.73 250.985 165.713 250.884 165.677C250.783 165.642 250.696 165.587 250.623 165.51C250.55 165.434 250.493 165.337 250.453 165.217C250.413 165.097 250.393 164.95 250.393 164.778V163.165H250.671V164.782C250.671 164.917 250.686 165.03 250.718 165.119C250.749 165.21 250.791 165.281 250.844 165.335C250.897 165.389 250.958 165.428 251.03 165.452C251.1 165.475 251.176 165.487 251.254 165.487C251.366 165.487 251.465 165.474 251.551 165.449C251.637 165.425 251.709 165.389 251.772 165.345C251.834 165.3 251.885 165.247 251.926 165.186C251.966 165.125 251.998 165.059 252.021 164.986V163.164H252.301V165.682H252.031L252.026 165.364L252.025 165.365Z" fill="#699DEE"/>
<path d="M252.913 164.401C252.913 164.206 252.935 164.029 252.979 163.871C253.023 163.714 253.087 163.579 253.17 163.467C253.254 163.356 253.356 163.27 253.476 163.209C253.596 163.149 253.732 163.118 253.885 163.118C254.065 163.118 254.219 163.155 254.349 163.226C254.477 163.298 254.584 163.399 254.667 163.527L254.682 163.164H254.943V165.637C254.943 165.801 254.919 165.946 254.871 166.076C254.823 166.205 254.754 166.315 254.667 166.405C254.579 166.495 254.473 166.563 254.35 166.611C254.225 166.66 254.086 166.683 253.934 166.683C253.855 166.683 253.774 166.674 253.691 166.656C253.609 166.638 253.529 166.611 253.453 166.576C253.376 166.541 253.303 166.496 253.235 166.442C253.167 166.388 253.107 166.326 253.055 166.253L253.211 166.085C253.314 166.211 253.423 166.302 253.537 166.361C253.652 166.42 253.778 166.448 253.915 166.448C254.035 166.448 254.141 166.429 254.232 166.394C254.325 166.358 254.403 166.305 254.466 166.235C254.53 166.166 254.578 166.083 254.612 165.984C254.645 165.885 254.663 165.774 254.663 165.648V165.354C254.579 165.47 254.472 165.562 254.344 165.628C254.215 165.694 254.062 165.727 253.883 165.727C253.732 165.727 253.597 165.695 253.477 165.633C253.357 165.569 253.256 165.482 253.173 165.369C253.089 165.257 253.024 165.123 252.981 164.965C252.936 164.809 252.915 164.636 252.915 164.446V164.397L252.913 164.401ZM253.195 164.451C253.195 164.597 253.209 164.735 253.24 164.862C253.269 164.989 253.314 165.098 253.375 165.191C253.436 165.284 253.512 165.357 253.604 165.409C253.697 165.462 253.807 165.488 253.934 165.488C254.03 165.488 254.116 165.476 254.193 165.453C254.27 165.429 254.338 165.398 254.397 165.357C254.456 165.315 254.507 165.267 254.551 165.211C254.595 165.154 254.632 165.093 254.663 165.028V163.857C254.636 163.791 254.603 163.729 254.562 163.67C254.52 163.611 254.471 163.558 254.412 163.512C254.353 163.466 254.286 163.43 254.209 163.403C254.131 163.376 254.041 163.361 253.938 163.361C253.809 163.361 253.698 163.388 253.605 163.441C253.512 163.495 253.435 163.568 253.375 163.661C253.315 163.754 253.269 163.864 253.24 163.991C253.21 164.118 253.195 164.256 253.195 164.401V164.451Z" fill="#699DEE"/>
<path d="M257.262 165.683C257.247 165.64 257.234 165.587 257.225 165.523C257.217 165.46 257.211 165.396 257.208 165.332C257.165 165.386 257.116 165.438 257.058 165.486C257.001 165.534 256.936 165.576 256.866 165.611C256.794 165.647 256.715 165.676 256.63 165.697C256.544 165.718 256.453 165.73 256.353 165.73C256.23 165.73 256.119 165.713 256.019 165.676C255.919 165.641 255.833 165.59 255.762 165.526C255.692 165.461 255.636 165.386 255.598 165.299C255.559 165.212 255.539 165.118 255.539 165.015C255.539 164.892 255.565 164.782 255.618 164.683C255.671 164.585 255.747 164.501 255.846 164.432C255.945 164.362 256.066 164.31 256.208 164.273C256.35 164.237 256.509 164.218 256.687 164.218H257.204V163.931C257.204 163.752 257.149 163.609 257.037 163.507C256.927 163.404 256.764 163.352 256.551 163.352C256.454 163.352 256.363 163.365 256.281 163.392C256.199 163.418 256.128 163.455 256.068 163.501C256.008 163.548 255.962 163.602 255.928 163.663C255.894 163.724 255.878 163.79 255.878 163.86L255.598 163.857C255.598 163.762 255.621 163.67 255.667 163.582C255.714 163.494 255.779 163.415 255.863 163.346C255.948 163.277 256.049 163.222 256.168 163.179C256.287 163.137 256.419 163.117 256.563 163.117C256.697 163.117 256.82 163.135 256.933 163.169C257.045 163.203 257.142 163.255 257.222 163.323C257.303 163.391 257.365 163.477 257.411 163.579C257.456 163.681 257.478 163.801 257.478 163.937V165.157C257.478 165.2 257.479 165.245 257.483 165.292C257.487 165.339 257.491 165.384 257.498 165.427C257.505 165.47 257.514 165.512 257.523 165.552C257.532 165.591 257.543 165.626 257.556 165.655V165.683H257.258H257.262ZM256.386 165.483C256.487 165.483 256.58 165.47 256.667 165.445C256.753 165.419 256.831 165.384 256.901 165.339C256.97 165.294 257.031 165.241 257.082 165.181C257.134 165.122 257.175 165.057 257.205 164.988V164.434H256.728C256.586 164.434 256.457 164.447 256.345 164.473C256.232 164.499 256.136 164.535 256.059 164.583C255.981 164.632 255.922 164.69 255.881 164.76C255.84 164.829 255.819 164.906 255.819 164.993C255.819 165.062 255.832 165.126 255.859 165.185C255.886 165.245 255.923 165.297 255.972 165.341C256.021 165.386 256.08 165.42 256.15 165.446C256.22 165.472 256.299 165.485 256.386 165.485V165.483Z" fill="#699DEE"/>
<path d="M259.389 163.403C259.331 163.392 259.267 163.386 259.201 163.386C259.107 163.386 259.021 163.4 258.945 163.428C258.868 163.457 258.801 163.495 258.744 163.546C258.685 163.596 258.637 163.656 258.597 163.724C258.557 163.794 258.526 163.87 258.503 163.954V165.682H258.225V163.164H258.498L258.503 163.565C258.571 163.427 258.664 163.318 258.781 163.238C258.899 163.158 259.043 163.118 259.213 163.118C259.247 163.118 259.282 163.122 259.318 163.128C259.353 163.133 259.38 163.141 259.397 163.149L259.389 163.403Z" fill="#699DEE"/>
<path d="M246.252 171.949C246.252 169.941 247.5 168.368 249.342 168.368C251.184 168.368 252.412 169.921 252.412 171.949C252.412 173.977 251.174 175.53 249.322 175.53C247.47 175.53 246.252 173.977 246.252 171.949ZM250.847 171.949C250.847 170.693 250.233 169.743 249.322 169.743C248.41 169.743 247.817 170.663 247.817 171.949C247.817 173.236 248.421 174.156 249.342 174.156C250.263 174.156 250.847 173.226 250.847 171.949Z" fill="#699DEE"/>
<path d="M253.171 171.376C253.171 170.616 253.702 170.001 254.486 170.001C255.271 170.001 255.785 170.607 255.785 171.376C255.785 172.144 255.254 172.751 254.471 172.751C253.688 172.751 253.171 172.144 253.171 171.376ZM257.637 170.062H258.552L254.624 175.438H253.709L257.637 170.062ZM254.978 171.376C254.978 171.015 254.778 170.7 254.471 170.7C254.148 170.7 253.979 171.007 253.979 171.376C253.979 171.745 254.179 172.051 254.486 172.051C254.809 172.051 254.978 171.737 254.978 171.376ZM256.477 174.125C256.477 173.365 257.008 172.751 257.792 172.751C258.577 172.751 259.091 173.357 259.091 174.125C259.091 174.894 258.56 175.5 257.776 175.5C256.991 175.5 256.477 174.894 256.477 174.125ZM258.284 174.125C258.284 173.765 258.084 173.45 257.777 173.45C257.454 173.45 257.285 173.756 257.285 174.125C257.285 174.494 257.485 174.801 257.792 174.801C258.115 174.801 258.284 174.486 258.284 174.125Z" fill="#699DEE"/>
<path d="M190.234 127.528L191.19 128.303C191.19 128.303 193.806 127.365 194.396 130.471C194.396 130.471 194.554 131.794 193.714 131.797C192.876 131.8 193.221 131.653 192.034 131.687C190.846 131.722 189.86 131.096 189.686 130.132L189.118 129.316L190.234 127.526V127.528Z" fill="#EA8E50"/>
<path d="M190.126 129.192C190.889 128.397 190.827 127.808 190.827 127.808C190.827 127.808 181.993 120.584 181.097 119.995C180.487 119.594 173.98 113.832 170.94 110.319C169.431 108.577 167.563 109.252 165.425 109.866L163.665 110.37C161.539 110.979 160.985 113.95 162.73 115.393C167.642 119.458 175.814 124.03 177.343 124.991C181.138 127.376 188.569 130.211 188.569 130.211C188.569 130.211 189.47 129.876 190.125 129.194L190.126 129.192Z" fill="#1E3D70"/>
<path d="M200.208 173.584C200.208 173.584 202.352 175.189 205.636 174.34C205.636 174.34 208.285 173.737 208.866 175.057C208.866 175.057 204.804 177.119 203.776 177.682C203.001 178.107 202.193 178.778 201.621 179.296C201.168 179.706 200.464 179.651 200.078 179.178C199.899 178.958 199.695 178.697 199.471 178.394C198.844 177.546 197.386 174.807 197.386 174.807L200.208 173.584Z" fill="#233862"/>
<path d="M201.466 172.768C201.466 172.768 200.161 175.775 197.147 175.223C197.147 175.223 190.999 170.149 186.781 164.879C185.411 163.168 184.245 161.436 183.56 159.851C180.763 153.381 173.213 143.733 168.414 138.842L180.422 134.502C180.422 134.502 184.269 142.232 189.386 151.727C193.074 158.568 197.421 166.326 201.466 172.769V172.768Z" fill="#2B478B"/>
<path d="M189.386 151.727L186.781 164.881C185.411 163.169 184.245 161.437 183.56 159.852C180.763 153.383 173.213 143.734 168.414 138.844L180.422 134.503C180.422 134.503 184.269 142.233 189.386 151.728V151.727Z" fill="#233862"/>
<path d="M179.57 175.33C179.57 175.33 179.44 177.729 182.351 178.05C182.351 178.05 184.015 178.059 184.02 179.585L175.557 179.612C175.557 179.612 175.312 178.997 175.252 177.677C175.206 176.664 176.235 174.015 176.235 174.015L179.57 175.33Z" fill="#233862"/>
<path d="M176.483 134.502C176.483 134.502 181.833 140.375 185.229 150.955C187.076 156.711 181.843 171.184 180.822 176.213C180.822 176.213 177.311 176.51 174.909 175.583C174.909 175.583 174.727 165.198 176.131 157.193C176.917 152.713 169.088 147.611 165.666 139.517C163.339 134.01 166.17 134.104 169.65 133.971L176.483 134.503V134.502Z" fill="#2B478B"/>
<path d="M170.307 108.302C167.331 109.981 161.237 108.432 161.237 108.432C161.237 108.432 163.712 105.606 162.587 101.055L164.924 102.24L167.434 103.514C167.434 103.514 167.596 104.317 167.709 105.761C167.737 106.133 167.763 106.549 167.781 107.002C169.309 107.465 170.306 108.302 170.306 108.302H170.307Z" fill="#FFB07B"/>
<path d="M181.222 134.199C181.222 134.722 180.619 134.972 180.491 134.997C179.29 135.216 175.939 136.518 172.919 136.817C170.377 137.082 168.016 136.831 165.423 136.31C165.079 136.241 164.273 136.025 164.216 135.696C164.144 135.336 154.213 115.469 161.933 106.934C162.115 106.734 163.639 107.095 165.032 107.425C166.319 107.731 167.5 107.56 168.555 107.137L169.862 107.825C171.467 108.719 174.504 111.892 174.859 114.383C175.04 115.65 175.764 116.589 175.974 117.703C176.051 118.115 176.131 118.518 176.213 118.91C176.37 119.68 176.534 120.412 176.702 121.109C177.156 122.992 177.636 124.615 178.106 126.015C178.607 127.503 179.099 128.74 179.537 129.775C180.107 131.117 180.588 132.12 180.888 132.889C181.1 133.429 181.222 133.854 181.222 134.198V134.199Z" fill="#2A4E96"/>
<path d="M180.888 132.89C166.867 126.292 162.012 113.621 162.012 113.621C162.012 113.621 173.403 117.819 176.213 118.912C176.37 119.681 176.534 120.413 176.702 121.11C177.156 122.993 177.636 124.616 178.106 126.017C178.607 127.504 179.099 128.741 179.537 129.776C180.107 131.118 180.588 132.122 180.888 132.89Z" fill="#1E3D70"/>
<path d="M167.71 105.761C164.783 105.926 162.88 103.511 162.88 103.511C162.88 103.511 164.203 102.779 164.925 102.24L167.435 103.514C167.435 103.514 167.598 104.317 167.71 105.761Z" fill="#EA8E50"/>
<path d="M168.957 102.759C168.957 102.759 164.522 105.939 162.583 103.15C160.643 100.36 158.765 98.8915 161.515 96.7437C164.264 94.5958 165.561 95.275 166.434 96.0481C167.308 96.8224 170.061 101.861 168.957 102.759Z" fill="#FFB07B"/>
<path d="M166.902 93.529C166.744 92.4562 166.386 91.7019 166.386 91.7019C166.386 91.7019 166.107 92.8534 164.001 92.6948C161.895 92.5361 158.554 92.9016 157.442 95.2996C157.371 95.4524 157.308 95.6098 157.251 95.7696C157.05 95.2374 157.002 94.4408 157.002 94.4408C156.602 95.4735 157.002 96.7648 157.002 96.7648C156.996 96.8024 156.991 96.84 156.985 96.8776C156.521 97.2701 156.13 98.4908 156.13 98.4908C156.27 98.1501 156.613 97.928 156.918 97.7917C156.909 99.6576 157.666 101.482 158.997 102.026C160.941 102.821 160.925 102.214 162.881 103.51C162.881 103.51 163.406 102.86 163.048 102.423C162.691 101.986 161.339 101.351 162.094 100.716C162.85 100.081 163.128 100.796 163.406 100.359C163.683 99.9219 162.293 98.6518 164.082 97.4604C165.871 96.269 167.064 94.6005 166.905 93.529H166.902Z" fill="#233862"/>
<path d="M189.386 131.222C189.386 131.222 191.76 132.021 193.126 131.988C194.493 131.955 196.871 130.518 196.876 130.417C196.88 130.316 195.808 129.697 194.251 129.893C192.693 130.089 192.377 129.856 192.86 129.662C193.405 129.445 193.793 129.12 193.66 128.912C193.587 128.797 192.804 129.044 192.538 129.134C192.271 129.223 191.604 128.979 191.049 129.379C190.68 129.646 189.293 129.845 189.293 129.845L189.387 131.222H189.386Z" fill="#FFC299"/>
<path d="M190.324 130.451C190.742 129.272 190.933 128.739 190.933 128.739C190.933 128.739 181.593 121.518 180.644 120.902C179.997 120.483 173.552 115.918 170.375 112.314C168.799 110.527 166.366 109.753 164.046 110.3L162.134 110.752C159.827 111.296 159.147 114.248 160.985 115.744C166.163 119.956 174.838 124.775 176.458 125.782C180.481 128.281 189.324 131.703 189.324 131.703C189.324 131.703 189.994 131.377 190.322 130.451H190.324Z" fill="#2A4E96"/>
<path d="M110.523 119.023C109.799 119.664 107.875 117.464 107.61 117.171C107.596 117.143 107.582 117.129 107.582 117.129L108.167 115.5C108.167 115.5 110.69 115.402 111.108 115.82C111.525 116.239 111.317 118.341 110.522 119.022L110.523 119.023Z" fill="#ED985F"/>
<path d="M108.167 115.501L107.917 117.186C107.917 117.186 107.805 117.186 107.61 117.171C106.997 117.129 105.506 117.046 103.819 116.865C101.283 116.615 98.2729 116.169 97.0744 115.431C95.2491 114.318 92.2523 110.907 90.3012 107.495C90.2459 107.411 90.2036 107.328 90.1612 107.244C89.1439 105.434 88.4335 103.638 88.3771 102.204C88.3347 101.327 88.4323 100.575 88.6135 99.9208C88.8499 99.0572 89.2403 98.3757 89.6449 97.8599C89.7002 97.7765 89.7566 97.693 89.8401 97.6237C90.5093 96.8306 91.1644 96.4958 91.1644 96.4958C91.4985 96.3559 91.8607 96.524 92.2371 96.927V96.9411C92.544 97.2618 92.878 97.7483 93.1991 98.3616C93.2132 98.3757 93.2273 98.3898 93.2273 98.4039C93.2967 98.5296 93.3673 98.6682 93.4508 98.821C93.479 98.8492 93.4931 98.8903 93.5061 98.9185C93.659 99.2381 93.813 99.573 93.9659 99.9208C95.6807 103.652 97.506 109.305 99.0256 110.99C99.6807 111.714 102.677 113.134 105.06 114.192C106.775 114.944 108.169 115.501 108.169 115.501H108.167Z" fill="#ED985F"/>
<path d="M133.108 117.442C133.054 117.277 132.996 117.113 132.938 116.948C129.608 107.761 119.091 102.967 109.856 106.423C100.7 109.848 95.95 119.939 99.2361 129.086C99.2514 129.129 99.2678 129.173 99.2831 129.215C101.052 134.022 101.176 139.262 99.7183 144.188C98.0894 149.695 98.1635 155.745 100.323 161.538C105.593 175.677 121.48 182.951 135.806 177.795C150.269 172.588 157.815 156.757 152.662 142.417C150.557 136.558 146.659 131.856 141.796 128.693C137.697 126.027 134.634 122.069 133.107 117.443L133.108 117.442Z" fill="#82B378"/>
<path d="M131.948 118.524C131.898 118.37 131.844 118.216 131.789 118.062C128.675 109.471 118.97 104.943 110.488 108.118C102.079 111.267 97.7589 120.659 100.832 129.211C100.846 129.251 100.861 129.292 100.877 129.332C102.53 133.828 102.672 138.718 101.357 143.308C99.8865 148.438 99.9865 154.085 102.004 159.502C106.929 172.725 121.59 179.597 134.75 174.858C148.034 170.075 154.897 155.341 150.079 141.933C148.112 136.455 144.498 132.045 140.006 129.069C136.219 126.559 133.377 122.85 131.95 118.524H131.948Z" fill="#CEE085"/>
<path d="M139.834 147.67C142.279 154.476 138.739 161.975 131.926 164.418C131.56 164.549 131.192 164.662 130.824 164.761C124.321 166.473 117.475 162.958 115.162 156.517C113.619 152.223 114.46 147.655 116.999 144.253C118.485 142.263 120.555 140.671 123.07 139.769C129.883 137.327 137.389 140.863 139.834 147.67Z" fill="#F99746"/>
<path d="M132.664 152.493C134.207 156.789 133.367 161.359 130.824 164.76C124.321 166.472 117.475 162.957 115.162 156.516C113.619 152.222 114.46 147.653 116.999 144.252C123.502 142.536 130.349 146.05 132.664 152.492V152.493Z" fill="#ED7D2B"/>
<path d="M89.9119 176.18L88.0701 176.865C88.0701 176.865 80.0714 165.782 79.0858 156.031C78.9094 154.29 78.9682 152.604 79.3492 151.046C79.3492 151.046 79.2716 150.599 79.134 149.811C79.0705 149.443 78.9929 149 78.9035 148.492C78.6436 147.004 78.286 144.967 77.8768 142.648C76.9359 137.311 75.7162 130.488 74.7695 125.474L75.2658 125.314L80.6347 123.583L81.7438 120.062L85.7414 119.01C85.7414 119.01 86.6341 120.756 87.4327 129.001C87.5797 130.082 87.7137 131.275 87.8149 132.568C88.1266 136.516 88.1489 141.412 87.435 147.011C87.2515 148.444 87.0198 149.923 86.7329 151.444C86.5223 152.559 86.4906 154.077 86.58 155.821C86.9834 163.791 89.9119 176.18 89.9119 176.18Z" fill="#2B478B"/>
<path d="M87.8161 132.568L79.1352 149.811C79.0717 149.443 78.994 149 78.9047 148.492C78.6447 147.004 78.2872 144.967 77.8779 142.648C76.937 137.311 75.7174 130.488 74.7706 125.474L75.2669 125.314L80.6359 123.583L81.745 120.062L85.7426 119.01C85.7426 119.01 86.6352 120.756 87.4338 129.001C87.5808 130.082 87.7149 131.275 87.8161 132.568Z" fill="#233862"/>
<path d="M83.9972 121.223L83.7961 119.501C80.4289 120.394 71.4329 117.005 71.4329 117.005C71.4329 117.005 68.1715 119.869 68.5996 126.736C68.809 130.087 69.19 144.327 69.5887 148.542C69.7334 150.069 69.8592 151.156 69.911 151.59C69.911 151.592 69.911 151.593 69.911 151.594C69.9263 151.727 69.8804 151.852 69.8134 151.968C69.2265 152.963 68.7407 153.999 68.3409 155.06C64.4268 165.48 68.9442 178.313 68.9442 178.313L70.1168 177.84C70.1168 177.84 72.6878 163.559 74.7754 157.25C75.1294 156.18 75.4693 155.34 75.7809 154.837C76.6889 153.373 77.5322 150.981 78.2966 148.135C79.7421 142.755 80.9064 135.757 81.6803 130.356C81.7873 130.36 83.9961 121.224 83.9961 121.224L83.9972 121.223Z" fill="#2B478B"/>
<path d="M90.4294 100.339C89.372 100.829 88.096 101.162 86.5517 101.246C80.7629 101.563 79.4492 96.4934 79.2104 93.1295C80.0443 92.8275 80.7758 92.8557 81.1969 92.8781C81.6074 92.9004 82.0355 92.9427 82.3895 92.9862C83.0975 92.6172 84.37 90.8219 85.1051 87.8187L85.3545 87.9338L89.5308 89.896C89.5308 89.896 89.0874 91.2543 88.7593 92.5538C88.5041 93.5701 88.3206 94.5536 88.4735 94.8273C88.8028 94.9613 88.9992 95.0447 88.9992 95.0447C88.9992 95.0447 88.9992 95.0459 89.0004 95.0494C89.0427 95.1563 89.9507 97.4674 90.4294 100.338V100.339Z" fill="#FFB27D"/>
<path d="M91.8772 104.134C91.8336 104.249 91.7854 104.362 91.7325 104.478C90.2671 107.633 87.5526 120.699 87.5526 120.699C87.9395 123.047 69.8804 120.238 69.8333 118.099C69.197 115.831 72.0903 112.186 73.7215 110.358C73.9262 110.128 74.1097 109.882 74.2684 109.622C74.6718 108.97 74.927 108.235 75.0082 107.465C75.3281 104.433 75.207 101.592 75.234 99.8632C75.5527 99.627 75.8609 99.4097 76.1479 99.2029C76.5865 98.8833 76.9747 98.5837 77.2605 98.2805C77.5745 97.9504 77.7721 97.612 77.7944 97.2301C77.8109 96.9411 77.8015 96.6462 77.7721 96.3501C77.7579 96.2102 77.7403 96.0704 77.7191 95.9306C77.4933 94.4631 76.8806 93.1319 76.8806 93.1319C78.4342 92.5044 81.1957 92.8781 81.1957 92.8781C81.1957 92.8781 81.1922 93.0308 81.191 93.2822C81.1816 94.2904 81.191 96.8776 81.5144 97.3676C81.919 97.9774 89.3179 100.649 89.7084 99.8221C90.093 99.0078 89.0392 95.1939 89.0004 95.0506C88.9992 95.047 88.9992 95.0459 88.9992 95.0459C91.4773 96.0175 92.3629 96.833 92.3629 96.833C90.8704 97.8 93.0321 101.073 91.8772 104.133V104.134Z" fill="#F99746"/>
<path d="M86.8928 76.8775C86.8834 76.6272 86.6894 73.9248 82.5706 73.7838C82.5706 73.7838 84.5959 74.0247 84.9464 74.9141C84.9464 74.9141 83.5668 73.8144 82.4436 74.168C81.3204 74.5217 80.6606 76.4874 80.6536 77.1336C80.6465 77.7798 81.271 79.8642 81.9837 80.0416C82.2542 80.1086 82.5647 80.091 82.847 80.0416C82.6577 80.3377 82.4718 80.6644 82.2942 81.0286C80.65 84.3996 82.346 87.693 83.7373 87.3299C84.63 87.0961 84.8817 88.6177 84.8817 88.6177L93.552 81.6055C93.552 81.6055 90.3671 75.0222 86.8928 76.8751V76.8775Z" fill="#2C3A64"/>
<path d="M89.5308 89.8984C89.5308 89.8984 89.0862 91.2554 88.7593 92.5549C86.3177 91.8746 85.5767 89.3109 85.3533 87.9362L89.5308 89.8984Z" fill="#ED985F"/>
<path d="M90.0448 91.3342C90.0448 91.3342 84.2042 89.9841 85.1016 86.3629C85.9989 82.7417 85.8507 80.1286 89.6178 80.8383C93.3849 81.5479 93.7648 83.1083 93.7589 84.389C93.753 85.6709 91.5878 91.5927 90.0448 91.3342Z" fill="#FFB27D"/>
<path d="M94.0871 82.3328C93.4591 81.0204 92.7205 81.0909 92.2582 81.3235C89.5132 78.7868 86.8211 80.8594 86.8211 80.8594C85.7849 83.3597 83.5397 84.3819 83.5397 84.3819C83.5397 84.3819 84.4371 85.2996 87.0375 85.2796C87.8314 85.2737 88.6311 84.9095 89.358 84.4066C87.956 85.8166 86.3118 86.6755 86.3118 86.6755C89.5673 86.0527 91.7502 82.2882 91.9748 81.8875C92.25 82.294 92.7781 83.16 92.8228 83.892C92.8828 84.886 92.5405 86.8165 93.1109 86.8893C93.1109 86.8893 95.0303 84.3009 94.0883 82.3328H94.0871Z" fill="#2C3A64"/>
<path d="M92.3629 96.833C92.3629 96.833 93.7695 99.2839 93.9801 99.9149C93.9801 99.9149 92.1559 99.8444 91.4197 101.246C91.4197 101.246 91.2433 97.1631 92.3629 96.833Z" fill="#F99746"/>
<path d="M82.6905 116.308C79.1281 116.27 76.1126 112.575 74.2696 109.622C74.673 108.97 74.9282 108.235 75.0094 107.465C75.3293 104.433 75.2081 101.592 75.2352 99.8632C75.5539 99.627 75.862 99.4096 76.149 99.2029C76.5877 98.8833 76.9758 98.5837 77.2616 98.2805C80.1784 103.206 87.5208 116.36 82.6905 116.308Z" fill="#ED7D2B"/>
<path d="M101.778 119.788C101.468 120.025 98.9973 120.99 98.0553 120.694C97.5296 120.528 95.7007 120.077 94.9621 119.896C94.6693 119.841 93.6166 119.635 93.6166 119.635L94.4105 117.324C94.4105 117.324 94.4411 117.329 94.5081 117.352C94.8104 117.458 95.3914 117.744 96.1523 117.858C97.0909 117.997 98.2611 117.409 98.8703 117.743C100.159 118.449 101.939 117.733 102.349 118.109C102.659 118.392 102.547 119.199 101.778 119.789V119.788Z" fill="#FFB27D"/>
<path d="M96.1535 118.244L95.6654 120.027C95.6654 120.027 95.0527 119.915 94.0765 119.734C93.7837 119.679 93.6167 119.637 93.6167 119.637C92.8357 119.484 91.9019 119.275 90.8845 119.051H90.8704C89.1286 118.633 87.1774 118.133 85.5321 117.576C84.3748 117.171 83.3715 116.74 82.6894 116.309C82.62 116.267 82.5636 116.226 82.4942 116.169C80.8641 114.986 78.9258 111.505 77.4216 107.774C77.2123 107.26 77.017 106.744 76.8218 106.242C76.1244 104.376 75.5681 102.539 75.2329 100.951C75.0235 100.004 74.8847 99.1406 74.8565 98.4309C74.8424 98.1806 74.8283 97.9433 74.8424 97.7212C74.8706 93.6841 76.8771 93.1272 76.8771 93.1272C76.9182 93.1131 76.9606 93.099 77.0158 93.086C77.364 93.0308 77.7262 93.267 78.1026 93.7264C78.5765 94.2974 79.0787 95.2303 79.5939 96.3583C80.3878 98.1548 81.224 100.48 82.0049 102.791C82.4365 104.058 82.8552 105.326 83.2728 106.495C83.5103 107.204 83.7467 107.873 83.9702 108.486C84.4018 109.655 84.7923 110.602 85.1404 111.202C85.3639 111.592 86.0049 112.134 86.8552 112.747C88.3324 113.818 90.4929 115.114 92.3747 116.172C93.1556 116.617 93.8942 117.021 94.507 117.355C95.4961 117.898 96.1512 118.245 96.1512 118.245L96.1535 118.244Z" fill="#FFB27D"/>
<path d="M79.5915 96.3618C76.9088 95.6228 74.8389 97.7154 74.8389 97.7154C74.873 93.6841 76.8806 93.1319 76.8806 93.1319C77.6886 92.7982 78.6248 94.1952 79.5915 96.3606V96.3618Z" fill="#F99746"/>
<path d="M75.7597 179.268H66.4838C66.4838 179.268 66.2615 177.856 66.746 176.784C67.2106 175.756 67.9374 175.288 67.7634 174.045C68.3526 174.652 69.3135 175.331 70.6542 175.15C70.8189 175.415 71.7151 176.841 72.2632 177.234C72.8689 177.669 75.5727 177.514 75.7586 179.268H75.7597Z" fill="#233862"/>
<path d="M95.676 179.268H86.4C86.4 179.268 86.0531 177.79 86.6623 176.784C87.2009 175.895 86.9951 175.387 86.5952 174.652C87.0151 174.823 87.5585 174.979 88.1571 174.945C88.6193 174.918 89.1074 174.709 89.5367 174.46C89.9354 174.915 91.6455 176.85 92.1794 177.234C92.7851 177.669 95.489 177.514 95.6748 179.268H95.676Z" fill="#233862"/>
<path d="M96.631 118.094C96.631 118.094 97.4249 117.577 98.5939 117.186C99.3243 116.941 100.28 116.676 100.251 116.941C100.222 117.207 98.7127 117.916 98.6833 118.035C98.6539 118.154 96.6322 118.094 96.6322 118.094H96.631Z" fill="#FFB27D"/>
<path d="M147.386 153.419C153.595 149.054 159.195 152.636 163.563 158.839C167.933 165.042 169.064 171.719 162.855 176.084C156.646 180.449 142.157 180.308 139.132 176.013C136.747 172.627 141.176 157.784 147.385 153.419H147.386Z" fill="#F77D48"/>
<path d="M155.177 154.788C154.954 154.944 154.163 154.898 154.163 154.898C154.163 154.898 154.386 154.139 154.609 153.983C154.831 153.827 155.139 153.88 155.295 154.103C155.452 154.326 155.399 154.633 155.175 154.789L155.177 154.788Z" fill="#FBBEA3"/>
<path d="M155.003 157.61C154.78 157.766 153.989 157.72 153.989 157.72C153.989 157.72 154.212 156.961 154.435 156.805C154.657 156.649 154.965 156.702 155.121 156.925C155.278 157.147 155.225 157.455 155.001 157.611L155.003 157.61Z" fill="#FBBEA3"/>
<path d="M158.032 158.844C157.81 159 157.018 158.954 157.018 158.954C157.018 158.954 157.242 158.195 157.464 158.039C157.686 157.883 157.995 157.935 158.151 158.159C158.307 158.381 158.255 158.689 158.031 158.845L158.032 158.844Z" fill="#FBBEA3"/>
<path d="M158.825 163.038C158.603 163.195 157.811 163.149 157.811 163.149C157.811 163.149 158.035 162.39 158.257 162.233C158.479 162.077 158.787 162.13 158.944 162.353C159.1 162.575 159.047 162.883 158.824 163.039L158.825 163.038Z" fill="#FBBEA3"/>
<path d="M161.712 164.499C161.49 164.655 160.698 164.609 160.698 164.609C160.698 164.609 160.922 163.85 161.144 163.694C161.367 163.538 161.675 163.591 161.831 163.814C161.988 164.036 161.935 164.344 161.711 164.5L161.712 164.499Z" fill="#FBBEA3"/>
<path d="M162.299 167.97C162.077 168.126 161.285 168.08 161.285 168.08C161.285 168.08 161.509 167.321 161.731 167.165C161.953 167.008 162.262 167.061 162.418 167.285C162.574 167.507 162.521 167.815 162.298 167.971L162.299 167.97Z" fill="#FBBEA3"/>
<path d="M164.891 169.012C164.669 169.168 163.878 169.122 163.878 169.122C163.878 169.122 164.101 168.363 164.323 168.207C164.546 168.051 164.854 168.104 165.01 168.327C165.167 168.549 165.114 168.857 164.89 169.013L164.891 169.012Z" fill="#FBBEA3"/>
<path d="M150.132 156.4C149.866 156.587 148.921 156.531 148.921 156.531C148.921 156.531 149.188 155.624 149.454 155.438C149.719 155.251 150.088 155.314 150.275 155.58C150.462 155.845 150.398 156.213 150.132 156.4Z" fill="#FBBEA3"/>
<path d="M149.924 159.772C149.658 159.959 148.713 159.904 148.713 159.904C148.713 159.904 148.98 158.996 149.245 158.81C149.511 158.623 149.879 158.686 150.066 158.952C150.253 159.217 150.19 159.584 149.924 159.772Z" fill="#FBBEA3"/>
<path d="M153.544 161.245C153.278 161.432 152.333 161.377 152.333 161.377C152.333 161.377 152.6 160.47 152.866 160.283C153.131 160.096 153.499 160.16 153.686 160.425C153.873 160.691 153.81 161.059 153.544 161.245Z" fill="#FBBEA3"/>
<path d="M154.492 166.258C154.226 166.445 153.281 166.389 153.281 166.389C153.281 166.389 153.548 165.482 153.814 165.295C154.079 165.109 154.446 165.172 154.634 165.438C154.821 165.703 154.758 166.07 154.492 166.258Z" fill="#FBBEA3"/>
<path d="M157.942 168.004C157.676 168.191 156.73 168.135 156.73 168.135C156.73 168.135 156.997 167.228 157.263 167.041C157.529 166.855 157.896 166.918 158.084 167.184C158.272 167.449 158.207 167.817 157.942 168.004Z" fill="#FBBEA3"/>
<path d="M158.643 172.15C158.377 172.337 157.431 172.282 157.431 172.282C157.431 172.282 157.698 171.375 157.964 171.188C158.23 171.001 158.597 171.064 158.785 171.33C158.972 171.596 158.908 171.963 158.643 172.15Z" fill="#FBBEA3"/>
<path d="M161.739 173.396C161.474 173.582 160.528 173.527 160.528 173.527C160.528 173.527 160.795 172.62 161.061 172.433C161.327 172.246 161.695 172.31 161.882 172.575C162.069 172.841 162.005 173.209 161.739 173.396Z" fill="#FBBEA3"/>
<path d="M141.293 167.932C141.149 168.033 140.642 168.003 140.642 168.003C140.642 168.003 140.786 167.515 140.929 167.414C141.073 167.313 141.27 167.348 141.37 167.49C141.471 167.634 141.436 167.831 141.294 167.931L141.293 167.932Z" fill="#FBBEA3"/>
<path d="M141.181 169.744C141.037 169.845 140.531 169.814 140.531 169.814C140.531 169.814 140.674 169.327 140.817 169.226C140.961 169.125 141.157 169.16 141.259 169.302C141.36 169.444 141.324 169.642 141.182 169.743L141.181 169.744Z" fill="#FBBEA3"/>
<path d="M143.126 170.536C142.983 170.637 142.476 170.606 142.476 170.606C142.476 170.606 142.619 170.119 142.763 170.018C142.906 169.917 143.104 169.952 143.204 170.094C143.305 170.237 143.27 170.435 143.127 170.535L143.126 170.536Z" fill="#FBBEA3"/>
<path d="M143.637 173.231C143.493 173.332 142.986 173.302 142.986 173.302C142.986 173.302 143.13 172.814 143.273 172.713C143.417 172.612 143.614 172.647 143.714 172.789C143.815 172.933 143.78 173.13 143.638 173.23L143.637 173.231Z" fill="#FBBEA3"/>
<path d="M145.49 174.169C145.347 174.27 144.84 174.239 144.84 174.239C144.84 174.239 144.983 173.752 145.127 173.651C145.27 173.549 145.468 173.585 145.568 173.727C145.669 173.87 145.634 174.068 145.491 174.168L145.49 174.169Z" fill="#FBBEA3"/>
<path d="M145.867 176.398C145.723 176.499 145.216 176.468 145.216 176.468C145.216 176.468 145.36 175.98 145.503 175.879C145.647 175.778 145.843 175.814 145.944 175.956C146.045 176.099 146.01 176.295 145.868 176.396L145.867 176.398Z" fill="#FBBEA3"/>
<path d="M147.532 177.068C147.388 177.17 146.882 177.139 146.882 177.139C146.882 177.139 147.025 176.651 147.168 176.55C147.312 176.449 147.51 176.485 147.61 176.627C147.711 176.77 147.675 176.966 147.533 177.067L147.532 177.068Z" fill="#FBBEA3"/>
<path d="M143.708 164.348C143.523 164.479 142.865 164.44 142.865 164.44C142.865 164.44 143.051 163.808 143.237 163.677C143.423 163.547 143.678 163.592 143.808 163.777C143.939 163.963 143.894 164.218 143.708 164.348Z" fill="#FBBEA3"/>
<path d="M143.564 166.696C143.378 166.826 142.72 166.788 142.72 166.788C142.72 166.788 142.906 166.155 143.092 166.025C143.278 165.895 143.533 165.939 143.664 166.124C143.794 166.309 143.75 166.564 143.564 166.695V166.696Z" fill="#FBBEA3"/>
<path d="M146.085 167.723C145.899 167.853 145.242 167.815 145.242 167.815C145.242 167.815 145.428 167.182 145.614 167.052C145.799 166.922 146.055 166.966 146.185 167.152C146.316 167.337 146.271 167.592 146.085 167.723Z" fill="#FBBEA3"/>
<path d="M146.745 171.214C146.559 171.344 145.902 171.305 145.902 171.305C145.902 171.305 146.088 170.673 146.274 170.543C146.459 170.412 146.715 170.457 146.845 170.643C146.976 170.828 146.931 171.083 146.745 171.214Z" fill="#FBBEA3"/>
<path d="M149.148 172.43C148.962 172.56 148.305 172.521 148.305 172.521C148.305 172.521 148.49 171.889 148.676 171.759C148.862 171.628 149.117 171.673 149.248 171.859C149.378 172.044 149.334 172.299 149.148 172.43Z" fill="#FBBEA3"/>
<path d="M149.636 175.318C149.45 175.448 148.793 175.409 148.793 175.409C148.793 175.409 148.979 174.777 149.164 174.647C149.35 174.516 149.605 174.561 149.736 174.747C149.867 174.932 149.822 175.187 149.636 175.318Z" fill="#FBBEA3"/>
<path d="M151.794 176.186C151.608 176.317 150.951 176.278 150.951 176.278C150.951 176.278 151.137 175.646 151.323 175.515C151.508 175.385 151.764 175.429 151.894 175.615C152.025 175.801 151.98 176.056 151.794 176.186Z" fill="#FBBEA3"/>
<path d="M146.423 160.651C146.197 160.809 145.396 160.762 145.396 160.762C145.396 160.762 145.622 159.994 145.848 159.835C146.073 159.677 146.384 159.731 146.543 159.956C146.702 160.182 146.647 160.492 146.422 160.651H146.423Z" fill="#FBBEA3"/>
<path d="M146.246 163.507C146.021 163.666 145.22 163.619 145.22 163.619C145.22 163.619 145.445 162.85 145.671 162.692C145.897 162.533 146.208 162.587 146.366 162.813C146.525 163.038 146.471 163.349 146.245 163.507H146.246Z" fill="#FBBEA3"/>
<path d="M149.315 164.756C149.089 164.915 148.288 164.868 148.288 164.868C148.288 164.868 148.514 164.099 148.74 163.941C148.966 163.782 149.276 163.836 149.435 164.062C149.594 164.287 149.54 164.597 149.314 164.756H149.315Z" fill="#FBBEA3"/>
<path d="M150.117 169.004C149.891 169.162 149.09 169.115 149.09 169.115C149.09 169.115 149.316 168.347 149.542 168.188C149.768 168.03 150.078 168.084 150.237 168.309C150.396 168.535 150.342 168.845 150.116 169.004H150.117Z" fill="#FBBEA3"/>
<path d="M153.041 170.484C152.815 170.643 152.014 170.596 152.014 170.596C152.014 170.596 152.24 169.827 152.466 169.669C152.691 169.51 153.002 169.564 153.161 169.79C153.32 170.015 153.265 170.325 153.04 170.484H153.041Z" fill="#FBBEA3"/>
<path d="M153.635 173.997C153.409 174.156 152.608 174.109 152.608 174.109C152.608 174.109 152.834 173.34 153.06 173.182C153.285 173.023 153.596 173.077 153.755 173.303C153.913 173.528 153.859 173.839 153.634 173.997H153.635Z" fill="#FBBEA3"/>
<path d="M156.26 175.053C156.034 175.212 155.233 175.165 155.233 175.165C155.233 175.165 155.459 174.397 155.685 174.238C155.911 174.079 156.221 174.133 156.38 174.359C156.539 174.585 156.484 174.895 156.259 175.053H156.26Z" fill="#FBBEA3"/>
<path d="M162.884 158.543C162.884 158.543 167.596 154.781 172.264 156.696C172.264 156.696 171.781 157.261 171.434 157.504C171.087 157.749 167.773 155.986 163.018 159.174L162.884 158.543Z" fill="#649B57"/>
<path d="M163.5 158.368C163.5 158.368 162.122 154.711 158.815 153.784C158.815 153.784 160.989 155.907 161.174 156.556C161.174 156.556 160.282 156.173 158.812 157.012C158.812 157.012 161.234 157.524 161.719 158.931C162.205 160.337 161.82 162.938 161.82 162.938C161.82 162.938 163.803 162.006 163.809 160.957C163.809 160.957 165.639 162.307 166.677 164.999C166.677 164.999 166.231 160.896 163.501 158.367L163.5 158.368Z" fill="#649B57"/>
<path d="M145.23 172.224C145.23 175.976 141.623 179.018 137.174 179.018C132.725 179.018 129.118 175.976 129.118 172.224C129.118 168.473 132.725 165.431 137.174 165.431C141.623 165.431 145.23 168.473 145.23 172.224Z" fill="#2A4E96"/>
<path d="M140.428 171.525C141.579 171.525 142.511 170.739 142.511 169.768C142.511 168.798 141.579 168.012 140.428 168.012C139.278 168.012 138.345 168.798 138.345 169.768C138.345 170.739 139.278 171.525 140.428 171.525Z" fill="#4673BC"/>
</svg>
